<mxfile host="app.diagrams.net" modified="2023-02-15T14:23:21.123Z" agent="5.0 (Macintosh; Intel Mac OS X 10_15_7) AppleWebKit/537.36 (KHTML, like Gecko) Chrome/108.0.0.0 Safari/537.36" etag="2ASRQNla4HQfCR1-jpG8" version="20.3.7" type="github">
  <diagram id="R2lEEEUBdFMjLlhIrx00" name="Page-1">
    <mxGraphModel dx="1116" dy="621" grid="1" gridSize="10" guides="1" tooltips="1" connect="1" arrows="1" fold="1" page="1" pageScale="1" pageWidth="1200" pageHeight="1920" math="0" shadow="0" extFonts="Permanent Marker^https://fonts.googleapis.com/css?family=Permanent+Marker">
      <root>
        <mxCell id="0" />
        <mxCell id="1" parent="0" />
        <mxCell id="vPbFiJ_FMfd-app0Vi9e-17" value="ask_order" style="shape=table;startSize=30;container=1;collapsible=1;childLayout=tableLayout;fixedRows=1;rowLines=0;fontStyle=1;align=center;resizeLast=1;" parent="1" vertex="1">
          <mxGeometry x="498" y="30" width="252" height="210" as="geometry" />
        </mxCell>
        <mxCell id="vPbFiJ_FMfd-app0Vi9e-18" value="" style="shape=partialRectangle;collapsible=0;dropTarget=0;pointerEvents=0;fillColor=none;points=[[0,0.5],[1,0.5]];portConstraint=eastwest;top=0;left=0;right=0;bottom=1;" parent="vPbFiJ_FMfd-app0Vi9e-17" vertex="1">
          <mxGeometry y="30" width="252" height="30" as="geometry" />
        </mxCell>
        <mxCell id="vPbFiJ_FMfd-app0Vi9e-19" value="PK" style="shape=partialRectangle;overflow=hidden;connectable=0;fillColor=none;top=0;left=0;bottom=0;right=0;fontStyle=1;" parent="vPbFiJ_FMfd-app0Vi9e-18" vertex="1">
          <mxGeometry width="30" height="30" as="geometry">
            <mxRectangle width="30" height="30" as="alternateBounds" />
          </mxGeometry>
        </mxCell>
        <mxCell id="vPbFiJ_FMfd-app0Vi9e-20" value="id int NOT NULL " style="shape=partialRectangle;overflow=hidden;connectable=0;fillColor=none;top=0;left=0;bottom=0;right=0;align=left;spacingLeft=6;fontStyle=5;" parent="vPbFiJ_FMfd-app0Vi9e-18" vertex="1">
          <mxGeometry x="30" width="222" height="30" as="geometry">
            <mxRectangle width="222" height="30" as="alternateBounds" />
          </mxGeometry>
        </mxCell>
        <mxCell id="vPbFiJ_FMfd-app0Vi9e-21" value="" style="shape=partialRectangle;collapsible=0;dropTarget=0;pointerEvents=0;fillColor=none;points=[[0,0.5],[1,0.5]];portConstraint=eastwest;top=0;left=0;right=0;bottom=0;" parent="vPbFiJ_FMfd-app0Vi9e-17" vertex="1">
          <mxGeometry y="60" width="252" height="30" as="geometry" />
        </mxCell>
        <mxCell id="vPbFiJ_FMfd-app0Vi9e-22" value="" style="shape=partialRectangle;overflow=hidden;connectable=0;fillColor=none;top=0;left=0;bottom=0;right=0;" parent="vPbFiJ_FMfd-app0Vi9e-21" vertex="1">
          <mxGeometry width="30" height="30" as="geometry">
            <mxRectangle width="30" height="30" as="alternateBounds" />
          </mxGeometry>
        </mxCell>
        <mxCell id="vPbFiJ_FMfd-app0Vi9e-23" value="stock_id int NOT NULL" style="shape=partialRectangle;overflow=hidden;connectable=0;fillColor=none;top=0;left=0;bottom=0;right=0;align=left;spacingLeft=6;" parent="vPbFiJ_FMfd-app0Vi9e-21" vertex="1">
          <mxGeometry x="30" width="222" height="30" as="geometry">
            <mxRectangle width="222" height="30" as="alternateBounds" />
          </mxGeometry>
        </mxCell>
        <mxCell id="vPbFiJ_FMfd-app0Vi9e-76" value="" style="shape=partialRectangle;collapsible=0;dropTarget=0;pointerEvents=0;fillColor=none;points=[[0,0.5],[1,0.5]];portConstraint=eastwest;top=0;left=0;right=0;bottom=0;" parent="vPbFiJ_FMfd-app0Vi9e-17" vertex="1">
          <mxGeometry y="90" width="252" height="30" as="geometry" />
        </mxCell>
        <mxCell id="vPbFiJ_FMfd-app0Vi9e-77" value="" style="shape=partialRectangle;overflow=hidden;connectable=0;fillColor=none;top=0;left=0;bottom=0;right=0;" parent="vPbFiJ_FMfd-app0Vi9e-76" vertex="1">
          <mxGeometry width="30" height="30" as="geometry">
            <mxRectangle width="30" height="30" as="alternateBounds" />
          </mxGeometry>
        </mxCell>
        <mxCell id="vPbFiJ_FMfd-app0Vi9e-78" value="srv_time datetime(3) NOT NULL" style="shape=partialRectangle;overflow=hidden;connectable=0;fillColor=none;top=0;left=0;bottom=0;right=0;align=left;spacingLeft=6;" parent="vPbFiJ_FMfd-app0Vi9e-76" vertex="1">
          <mxGeometry x="30" width="222" height="30" as="geometry">
            <mxRectangle width="222" height="30" as="alternateBounds" />
          </mxGeometry>
        </mxCell>
        <mxCell id="vPbFiJ_FMfd-app0Vi9e-79" value="" style="shape=partialRectangle;collapsible=0;dropTarget=0;pointerEvents=0;fillColor=none;points=[[0,0.5],[1,0.5]];portConstraint=eastwest;top=0;left=0;right=0;bottom=0;" parent="vPbFiJ_FMfd-app0Vi9e-17" vertex="1">
          <mxGeometry y="120" width="252" height="30" as="geometry" />
        </mxCell>
        <mxCell id="vPbFiJ_FMfd-app0Vi9e-80" value="" style="shape=partialRectangle;overflow=hidden;connectable=0;fillColor=none;top=0;left=0;bottom=0;right=0;" parent="vPbFiJ_FMfd-app0Vi9e-79" vertex="1">
          <mxGeometry width="30" height="30" as="geometry">
            <mxRectangle width="30" height="30" as="alternateBounds" />
          </mxGeometry>
        </mxCell>
        <mxCell id="vPbFiJ_FMfd-app0Vi9e-81" value="price decimal(10,1) NOT NULL" style="shape=partialRectangle;overflow=hidden;connectable=0;fillColor=none;top=0;left=0;bottom=0;right=0;align=left;spacingLeft=6;" parent="vPbFiJ_FMfd-app0Vi9e-79" vertex="1">
          <mxGeometry x="30" width="222" height="30" as="geometry">
            <mxRectangle width="222" height="30" as="alternateBounds" />
          </mxGeometry>
        </mxCell>
        <mxCell id="vPbFiJ_FMfd-app0Vi9e-82" value="" style="shape=partialRectangle;collapsible=0;dropTarget=0;pointerEvents=0;fillColor=none;points=[[0,0.5],[1,0.5]];portConstraint=eastwest;top=0;left=0;right=0;bottom=0;" parent="vPbFiJ_FMfd-app0Vi9e-17" vertex="1">
          <mxGeometry y="150" width="252" height="30" as="geometry" />
        </mxCell>
        <mxCell id="vPbFiJ_FMfd-app0Vi9e-83" value="" style="shape=partialRectangle;overflow=hidden;connectable=0;fillColor=none;top=0;left=0;bottom=0;right=0;" parent="vPbFiJ_FMfd-app0Vi9e-82" vertex="1">
          <mxGeometry width="30" height="30" as="geometry">
            <mxRectangle width="30" height="30" as="alternateBounds" />
          </mxGeometry>
        </mxCell>
        <mxCell id="vPbFiJ_FMfd-app0Vi9e-84" value="volume int(11) NOT NULL" style="shape=partialRectangle;overflow=hidden;connectable=0;fillColor=none;top=0;left=0;bottom=0;right=0;align=left;spacingLeft=6;" parent="vPbFiJ_FMfd-app0Vi9e-82" vertex="1">
          <mxGeometry x="30" width="222" height="30" as="geometry">
            <mxRectangle width="222" height="30" as="alternateBounds" />
          </mxGeometry>
        </mxCell>
        <mxCell id="vPbFiJ_FMfd-app0Vi9e-85" value="" style="shape=partialRectangle;collapsible=0;dropTarget=0;pointerEvents=0;fillColor=none;points=[[0,0.5],[1,0.5]];portConstraint=eastwest;top=0;left=0;right=0;bottom=0;" parent="vPbFiJ_FMfd-app0Vi9e-17" vertex="1">
          <mxGeometry y="180" width="252" height="30" as="geometry" />
        </mxCell>
        <mxCell id="vPbFiJ_FMfd-app0Vi9e-86" value="" style="shape=partialRectangle;overflow=hidden;connectable=0;fillColor=none;top=0;left=0;bottom=0;right=0;" parent="vPbFiJ_FMfd-app0Vi9e-85" vertex="1">
          <mxGeometry width="30" height="30" as="geometry">
            <mxRectangle width="30" height="30" as="alternateBounds" />
          </mxGeometry>
        </mxCell>
        <mxCell id="vPbFiJ_FMfd-app0Vi9e-87" value="create_time datetime(3) NOT NULLÂ " style="shape=partialRectangle;overflow=hidden;connectable=0;fillColor=none;top=0;left=0;bottom=0;right=0;align=left;spacingLeft=6;" parent="vPbFiJ_FMfd-app0Vi9e-85" vertex="1">
          <mxGeometry x="30" width="222" height="30" as="geometry">
            <mxRectangle width="222" height="30" as="alternateBounds" />
          </mxGeometry>
        </mxCell>
        <mxCell id="vPbFiJ_FMfd-app0Vi9e-32" value="stock" style="shape=table;startSize=30;container=1;collapsible=1;childLayout=tableLayout;fixedRows=1;rowLines=0;fontStyle=1;align=center;resizeLast=1;" parent="1" vertex="1">
          <mxGeometry x="152" y="460" width="248" height="120" as="geometry" />
        </mxCell>
        <mxCell id="vPbFiJ_FMfd-app0Vi9e-33" value="" style="shape=partialRectangle;collapsible=0;dropTarget=0;pointerEvents=0;fillColor=none;points=[[0,0.5],[1,0.5]];portConstraint=eastwest;top=0;left=0;right=0;bottom=1;" parent="vPbFiJ_FMfd-app0Vi9e-32" vertex="1">
          <mxGeometry y="30" width="248" height="30" as="geometry" />
        </mxCell>
        <mxCell id="vPbFiJ_FMfd-app0Vi9e-34" value="PK" style="shape=partialRectangle;overflow=hidden;connectable=0;fillColor=none;top=0;left=0;bottom=0;right=0;fontStyle=1;" parent="vPbFiJ_FMfd-app0Vi9e-33" vertex="1">
          <mxGeometry width="30" height="30" as="geometry">
            <mxRectangle width="30" height="30" as="alternateBounds" />
          </mxGeometry>
        </mxCell>
        <mxCell id="vPbFiJ_FMfd-app0Vi9e-35" value="id int NOT NULL " style="shape=partialRectangle;overflow=hidden;connectable=0;fillColor=none;top=0;left=0;bottom=0;right=0;align=left;spacingLeft=6;fontStyle=5;" parent="vPbFiJ_FMfd-app0Vi9e-33" vertex="1">
          <mxGeometry x="30" width="218" height="30" as="geometry">
            <mxRectangle width="218" height="30" as="alternateBounds" />
          </mxGeometry>
        </mxCell>
        <mxCell id="vPbFiJ_FMfd-app0Vi9e-36" value="" style="shape=partialRectangle;collapsible=0;dropTarget=0;pointerEvents=0;fillColor=none;points=[[0,0.5],[1,0.5]];portConstraint=eastwest;top=0;left=0;right=0;bottom=0;" parent="vPbFiJ_FMfd-app0Vi9e-32" vertex="1">
          <mxGeometry y="60" width="248" height="30" as="geometry" />
        </mxCell>
        <mxCell id="vPbFiJ_FMfd-app0Vi9e-37" value="" style="shape=partialRectangle;overflow=hidden;connectable=0;fillColor=none;top=0;left=0;bottom=0;right=0;" parent="vPbFiJ_FMfd-app0Vi9e-36" vertex="1">
          <mxGeometry width="30" height="30" as="geometry">
            <mxRectangle width="30" height="30" as="alternateBounds" />
          </mxGeometry>
        </mxCell>
        <mxCell id="vPbFiJ_FMfd-app0Vi9e-38" value="code char(30) NOT NULL" style="shape=partialRectangle;overflow=hidden;connectable=0;fillColor=none;top=0;left=0;bottom=0;right=0;align=left;spacingLeft=6;" parent="vPbFiJ_FMfd-app0Vi9e-36" vertex="1">
          <mxGeometry x="30" width="218" height="30" as="geometry">
            <mxRectangle width="218" height="30" as="alternateBounds" />
          </mxGeometry>
        </mxCell>
        <mxCell id="vPbFiJ_FMfd-app0Vi9e-126" value="" style="shape=partialRectangle;collapsible=0;dropTarget=0;pointerEvents=0;fillColor=none;points=[[0,0.5],[1,0.5]];portConstraint=eastwest;top=0;left=0;right=0;bottom=0;" parent="vPbFiJ_FMfd-app0Vi9e-32" vertex="1">
          <mxGeometry y="90" width="248" height="30" as="geometry" />
        </mxCell>
        <mxCell id="vPbFiJ_FMfd-app0Vi9e-127" value="" style="shape=partialRectangle;overflow=hidden;connectable=0;fillColor=none;top=0;left=0;bottom=0;right=0;" parent="vPbFiJ_FMfd-app0Vi9e-126" vertex="1">
          <mxGeometry width="30" height="30" as="geometry">
            <mxRectangle width="30" height="30" as="alternateBounds" />
          </mxGeometry>
        </mxCell>
        <mxCell id="vPbFiJ_FMfd-app0Vi9e-128" value="name char(50) NOT NULL" style="shape=partialRectangle;overflow=hidden;connectable=0;fillColor=none;top=0;left=0;bottom=0;right=0;align=left;spacingLeft=6;" parent="vPbFiJ_FMfd-app0Vi9e-126" vertex="1">
          <mxGeometry x="30" width="218" height="30" as="geometry">
            <mxRectangle width="218" height="30" as="alternateBounds" />
          </mxGeometry>
        </mxCell>
        <mxCell id="vPbFiJ_FMfd-app0Vi9e-39" value="UK1" style="shape=partialRectangle;overflow=hidden;connectable=0;fillColor=none;top=0;left=0;bottom=0;right=0;" parent="1" vertex="1">
          <mxGeometry x="152" y="520.5" width="30" height="30" as="geometry" />
        </mxCell>
        <mxCell id="vPbFiJ_FMfd-app0Vi9e-44" value="FK1" style="shape=partialRectangle;overflow=hidden;connectable=0;fillColor=none;top=0;left=0;bottom=0;right=0;" parent="1" vertex="1">
          <mxGeometry x="498" y="90.5" width="30" height="30" as="geometry">
            <mxRectangle width="30" height="30" as="alternateBounds" />
          </mxGeometry>
        </mxCell>
        <mxCell id="vPbFiJ_FMfd-app0Vi9e-91" value="bid_order" style="shape=table;startSize=30;container=1;collapsible=1;childLayout=tableLayout;fixedRows=1;rowLines=0;fontStyle=1;align=center;resizeLast=1;" parent="1" vertex="1">
          <mxGeometry x="820" y="40" width="252" height="240" as="geometry" />
        </mxCell>
        <mxCell id="vPbFiJ_FMfd-app0Vi9e-92" value="" style="shape=partialRectangle;collapsible=0;dropTarget=0;pointerEvents=0;fillColor=none;points=[[0,0.5],[1,0.5]];portConstraint=eastwest;top=0;left=0;right=0;bottom=1;" parent="vPbFiJ_FMfd-app0Vi9e-91" vertex="1">
          <mxGeometry y="30" width="252" height="30" as="geometry" />
        </mxCell>
        <mxCell id="vPbFiJ_FMfd-app0Vi9e-93" value="PK" style="shape=partialRectangle;overflow=hidden;connectable=0;fillColor=none;top=0;left=0;bottom=0;right=0;fontStyle=1;" parent="vPbFiJ_FMfd-app0Vi9e-92" vertex="1">
          <mxGeometry width="30" height="30" as="geometry">
            <mxRectangle width="30" height="30" as="alternateBounds" />
          </mxGeometry>
        </mxCell>
        <mxCell id="vPbFiJ_FMfd-app0Vi9e-94" value="id int NOT NULL " style="shape=partialRectangle;overflow=hidden;connectable=0;fillColor=none;top=0;left=0;bottom=0;right=0;align=left;spacingLeft=6;fontStyle=5;" parent="vPbFiJ_FMfd-app0Vi9e-92" vertex="1">
          <mxGeometry x="30" width="222" height="30" as="geometry">
            <mxRectangle width="222" height="30" as="alternateBounds" />
          </mxGeometry>
        </mxCell>
        <mxCell id="vPbFiJ_FMfd-app0Vi9e-283" value="" style="shape=partialRectangle;collapsible=0;dropTarget=0;pointerEvents=0;fillColor=none;points=[[0,0.5],[1,0.5]];portConstraint=eastwest;top=0;left=0;right=0;bottom=1;" parent="vPbFiJ_FMfd-app0Vi9e-91" vertex="1">
          <mxGeometry y="60" width="252" height="30" as="geometry" />
        </mxCell>
        <mxCell id="vPbFiJ_FMfd-app0Vi9e-284" value="" style="shape=partialRectangle;overflow=hidden;connectable=0;fillColor=none;top=0;left=0;bottom=0;right=0;fontStyle=1;" parent="vPbFiJ_FMfd-app0Vi9e-283" vertex="1">
          <mxGeometry width="30" height="30" as="geometry">
            <mxRectangle width="30" height="30" as="alternateBounds" />
          </mxGeometry>
        </mxCell>
        <mxCell id="vPbFiJ_FMfd-app0Vi9e-285" value="stock_srv_time_price" style="shape=partialRectangle;overflow=hidden;connectable=0;fillColor=none;top=0;left=0;bottom=0;right=0;align=left;spacingLeft=6;fontStyle=5;" parent="vPbFiJ_FMfd-app0Vi9e-283" vertex="1">
          <mxGeometry x="30" width="222" height="30" as="geometry">
            <mxRectangle width="222" height="30" as="alternateBounds" />
          </mxGeometry>
        </mxCell>
        <mxCell id="vPbFiJ_FMfd-app0Vi9e-95" value="" style="shape=partialRectangle;collapsible=0;dropTarget=0;pointerEvents=0;fillColor=none;points=[[0,0.5],[1,0.5]];portConstraint=eastwest;top=0;left=0;right=0;bottom=0;" parent="vPbFiJ_FMfd-app0Vi9e-91" vertex="1">
          <mxGeometry y="90" width="252" height="30" as="geometry" />
        </mxCell>
        <mxCell id="vPbFiJ_FMfd-app0Vi9e-96" value="" style="shape=partialRectangle;overflow=hidden;connectable=0;fillColor=none;top=0;left=0;bottom=0;right=0;" parent="vPbFiJ_FMfd-app0Vi9e-95" vertex="1">
          <mxGeometry width="30" height="30" as="geometry">
            <mxRectangle width="30" height="30" as="alternateBounds" />
          </mxGeometry>
        </mxCell>
        <mxCell id="vPbFiJ_FMfd-app0Vi9e-97" value="stock_id int NOT NULL" style="shape=partialRectangle;overflow=hidden;connectable=0;fillColor=none;top=0;left=0;bottom=0;right=0;align=left;spacingLeft=6;" parent="vPbFiJ_FMfd-app0Vi9e-95" vertex="1">
          <mxGeometry x="30" width="222" height="30" as="geometry">
            <mxRectangle width="222" height="30" as="alternateBounds" />
          </mxGeometry>
        </mxCell>
        <mxCell id="vPbFiJ_FMfd-app0Vi9e-98" value="" style="shape=partialRectangle;collapsible=0;dropTarget=0;pointerEvents=0;fillColor=none;points=[[0,0.5],[1,0.5]];portConstraint=eastwest;top=0;left=0;right=0;bottom=0;" parent="vPbFiJ_FMfd-app0Vi9e-91" vertex="1">
          <mxGeometry y="120" width="252" height="30" as="geometry" />
        </mxCell>
        <mxCell id="vPbFiJ_FMfd-app0Vi9e-99" value="" style="shape=partialRectangle;overflow=hidden;connectable=0;fillColor=none;top=0;left=0;bottom=0;right=0;" parent="vPbFiJ_FMfd-app0Vi9e-98" vertex="1">
          <mxGeometry width="30" height="30" as="geometry">
            <mxRectangle width="30" height="30" as="alternateBounds" />
          </mxGeometry>
        </mxCell>
        <mxCell id="vPbFiJ_FMfd-app0Vi9e-100" value="srv_time datetime(3) NOT NULL" style="shape=partialRectangle;overflow=hidden;connectable=0;fillColor=none;top=0;left=0;bottom=0;right=0;align=left;spacingLeft=6;" parent="vPbFiJ_FMfd-app0Vi9e-98" vertex="1">
          <mxGeometry x="30" width="222" height="30" as="geometry">
            <mxRectangle width="222" height="30" as="alternateBounds" />
          </mxGeometry>
        </mxCell>
        <mxCell id="vPbFiJ_FMfd-app0Vi9e-101" value="" style="shape=partialRectangle;collapsible=0;dropTarget=0;pointerEvents=0;fillColor=none;points=[[0,0.5],[1,0.5]];portConstraint=eastwest;top=0;left=0;right=0;bottom=0;" parent="vPbFiJ_FMfd-app0Vi9e-91" vertex="1">
          <mxGeometry y="150" width="252" height="30" as="geometry" />
        </mxCell>
        <mxCell id="vPbFiJ_FMfd-app0Vi9e-102" value="" style="shape=partialRectangle;overflow=hidden;connectable=0;fillColor=none;top=0;left=0;bottom=0;right=0;" parent="vPbFiJ_FMfd-app0Vi9e-101" vertex="1">
          <mxGeometry width="30" height="30" as="geometry">
            <mxRectangle width="30" height="30" as="alternateBounds" />
          </mxGeometry>
        </mxCell>
        <mxCell id="vPbFiJ_FMfd-app0Vi9e-103" value="price decimal(10,1) NOT NULL" style="shape=partialRectangle;overflow=hidden;connectable=0;fillColor=none;top=0;left=0;bottom=0;right=0;align=left;spacingLeft=6;" parent="vPbFiJ_FMfd-app0Vi9e-101" vertex="1">
          <mxGeometry x="30" width="222" height="30" as="geometry">
            <mxRectangle width="222" height="30" as="alternateBounds" />
          </mxGeometry>
        </mxCell>
        <mxCell id="vPbFiJ_FMfd-app0Vi9e-104" value="" style="shape=partialRectangle;collapsible=0;dropTarget=0;pointerEvents=0;fillColor=none;points=[[0,0.5],[1,0.5]];portConstraint=eastwest;top=0;left=0;right=0;bottom=0;" parent="vPbFiJ_FMfd-app0Vi9e-91" vertex="1">
          <mxGeometry y="180" width="252" height="30" as="geometry" />
        </mxCell>
        <mxCell id="vPbFiJ_FMfd-app0Vi9e-105" value="" style="shape=partialRectangle;overflow=hidden;connectable=0;fillColor=none;top=0;left=0;bottom=0;right=0;" parent="vPbFiJ_FMfd-app0Vi9e-104" vertex="1">
          <mxGeometry width="30" height="30" as="geometry">
            <mxRectangle width="30" height="30" as="alternateBounds" />
          </mxGeometry>
        </mxCell>
        <mxCell id="vPbFiJ_FMfd-app0Vi9e-106" value="volume int(11) NOT NULL" style="shape=partialRectangle;overflow=hidden;connectable=0;fillColor=none;top=0;left=0;bottom=0;right=0;align=left;spacingLeft=6;" parent="vPbFiJ_FMfd-app0Vi9e-104" vertex="1">
          <mxGeometry x="30" width="222" height="30" as="geometry">
            <mxRectangle width="222" height="30" as="alternateBounds" />
          </mxGeometry>
        </mxCell>
        <mxCell id="vPbFiJ_FMfd-app0Vi9e-107" value="" style="shape=partialRectangle;collapsible=0;dropTarget=0;pointerEvents=0;fillColor=none;points=[[0,0.5],[1,0.5]];portConstraint=eastwest;top=0;left=0;right=0;bottom=0;" parent="vPbFiJ_FMfd-app0Vi9e-91" vertex="1">
          <mxGeometry y="210" width="252" height="30" as="geometry" />
        </mxCell>
        <mxCell id="vPbFiJ_FMfd-app0Vi9e-108" value="" style="shape=partialRectangle;overflow=hidden;connectable=0;fillColor=none;top=0;left=0;bottom=0;right=0;" parent="vPbFiJ_FMfd-app0Vi9e-107" vertex="1">
          <mxGeometry width="30" height="30" as="geometry">
            <mxRectangle width="30" height="30" as="alternateBounds" />
          </mxGeometry>
        </mxCell>
        <mxCell id="vPbFiJ_FMfd-app0Vi9e-109" value="create_time datetime(3) NOT NULLÂ " style="shape=partialRectangle;overflow=hidden;connectable=0;fillColor=none;top=0;left=0;bottom=0;right=0;align=left;spacingLeft=6;" parent="vPbFiJ_FMfd-app0Vi9e-107" vertex="1">
          <mxGeometry x="30" width="222" height="30" as="geometry">
            <mxRectangle width="222" height="30" as="alternateBounds" />
          </mxGeometry>
        </mxCell>
        <mxCell id="vPbFiJ_FMfd-app0Vi9e-129" value="ticker_data" style="shape=table;startSize=30;container=1;collapsible=1;childLayout=tableLayout;fixedRows=1;rowLines=0;fontStyle=1;align=center;resizeLast=1;" parent="1" vertex="1">
          <mxGeometry x="148" y="30" width="252" height="360" as="geometry" />
        </mxCell>
        <mxCell id="vPbFiJ_FMfd-app0Vi9e-130" value="" style="shape=partialRectangle;collapsible=0;dropTarget=0;pointerEvents=0;fillColor=none;points=[[0,0.5],[1,0.5]];portConstraint=eastwest;top=0;left=0;right=0;bottom=1;" parent="vPbFiJ_FMfd-app0Vi9e-129" vertex="1">
          <mxGeometry y="30" width="252" height="30" as="geometry" />
        </mxCell>
        <mxCell id="vPbFiJ_FMfd-app0Vi9e-131" value="PK" style="shape=partialRectangle;overflow=hidden;connectable=0;fillColor=none;top=0;left=0;bottom=0;right=0;fontStyle=1;" parent="vPbFiJ_FMfd-app0Vi9e-130" vertex="1">
          <mxGeometry width="30" height="30" as="geometry">
            <mxRectangle width="30" height="30" as="alternateBounds" />
          </mxGeometry>
        </mxCell>
        <mxCell id="vPbFiJ_FMfd-app0Vi9e-132" value="id int NOT NULL " style="shape=partialRectangle;overflow=hidden;connectable=0;fillColor=none;top=0;left=0;bottom=0;right=0;align=left;spacingLeft=6;fontStyle=5;" parent="vPbFiJ_FMfd-app0Vi9e-130" vertex="1">
          <mxGeometry x="30" width="222" height="30" as="geometry">
            <mxRectangle width="222" height="30" as="alternateBounds" />
          </mxGeometry>
        </mxCell>
        <mxCell id="vPbFiJ_FMfd-app0Vi9e-133" value="" style="shape=partialRectangle;collapsible=0;dropTarget=0;pointerEvents=0;fillColor=none;points=[[0,0.5],[1,0.5]];portConstraint=eastwest;top=0;left=0;right=0;bottom=0;" parent="vPbFiJ_FMfd-app0Vi9e-129" vertex="1">
          <mxGeometry y="60" width="252" height="30" as="geometry" />
        </mxCell>
        <mxCell id="vPbFiJ_FMfd-app0Vi9e-134" value="" style="shape=partialRectangle;overflow=hidden;connectable=0;fillColor=none;top=0;left=0;bottom=0;right=0;" parent="vPbFiJ_FMfd-app0Vi9e-133" vertex="1">
          <mxGeometry width="30" height="30" as="geometry">
            <mxRectangle width="30" height="30" as="alternateBounds" />
          </mxGeometry>
        </mxCell>
        <mxCell id="vPbFiJ_FMfd-app0Vi9e-135" value="stock_id int NOT NULL" style="shape=partialRectangle;overflow=hidden;connectable=0;fillColor=none;top=0;left=0;bottom=0;right=0;align=left;spacingLeft=6;" parent="vPbFiJ_FMfd-app0Vi9e-133" vertex="1">
          <mxGeometry x="30" width="222" height="30" as="geometry">
            <mxRectangle width="222" height="30" as="alternateBounds" />
          </mxGeometry>
        </mxCell>
        <mxCell id="vPbFiJ_FMfd-app0Vi9e-136" value="" style="shape=partialRectangle;collapsible=0;dropTarget=0;pointerEvents=0;fillColor=none;points=[[0,0.5],[1,0.5]];portConstraint=eastwest;top=0;left=0;right=0;bottom=0;" parent="vPbFiJ_FMfd-app0Vi9e-129" vertex="1">
          <mxGeometry y="90" width="252" height="30" as="geometry" />
        </mxCell>
        <mxCell id="vPbFiJ_FMfd-app0Vi9e-137" value="" style="shape=partialRectangle;overflow=hidden;connectable=0;fillColor=none;top=0;left=0;bottom=0;right=0;" parent="vPbFiJ_FMfd-app0Vi9e-136" vertex="1">
          <mxGeometry width="30" height="30" as="geometry">
            <mxRectangle width="30" height="30" as="alternateBounds" />
          </mxGeometry>
        </mxCell>
        <mxCell id="vPbFiJ_FMfd-app0Vi9e-138" value="sequence int NOT NULL" style="shape=partialRectangle;overflow=hidden;connectable=0;fillColor=none;top=0;left=0;bottom=0;right=0;align=left;spacingLeft=6;" parent="vPbFiJ_FMfd-app0Vi9e-136" vertex="1">
          <mxGeometry x="30" width="222" height="30" as="geometry">
            <mxRectangle width="222" height="30" as="alternateBounds" />
          </mxGeometry>
        </mxCell>
        <mxCell id="vPbFiJ_FMfd-app0Vi9e-153" value="" style="shape=partialRectangle;collapsible=0;dropTarget=0;pointerEvents=0;fillColor=none;points=[[0,0.5],[1,0.5]];portConstraint=eastwest;top=0;left=0;right=0;bottom=0;" parent="vPbFiJ_FMfd-app0Vi9e-129" vertex="1">
          <mxGeometry y="120" width="252" height="30" as="geometry" />
        </mxCell>
        <mxCell id="vPbFiJ_FMfd-app0Vi9e-154" value="" style="shape=partialRectangle;overflow=hidden;connectable=0;fillColor=none;top=0;left=0;bottom=0;right=0;" parent="vPbFiJ_FMfd-app0Vi9e-153" vertex="1">
          <mxGeometry width="30" height="30" as="geometry">
            <mxRectangle width="30" height="30" as="alternateBounds" />
          </mxGeometry>
        </mxCell>
        <mxCell id="vPbFiJ_FMfd-app0Vi9e-155" value="time datetime(3) NOT NULLÂ " style="shape=partialRectangle;overflow=hidden;connectable=0;fillColor=none;top=0;left=0;bottom=0;right=0;align=left;spacingLeft=6;" parent="vPbFiJ_FMfd-app0Vi9e-153" vertex="1">
          <mxGeometry x="30" width="222" height="30" as="geometry">
            <mxRectangle width="222" height="30" as="alternateBounds" />
          </mxGeometry>
        </mxCell>
        <mxCell id="vPbFiJ_FMfd-app0Vi9e-139" value="" style="shape=partialRectangle;collapsible=0;dropTarget=0;pointerEvents=0;fillColor=none;points=[[0,0.5],[1,0.5]];portConstraint=eastwest;top=0;left=0;right=0;bottom=0;" parent="vPbFiJ_FMfd-app0Vi9e-129" vertex="1">
          <mxGeometry y="150" width="252" height="30" as="geometry" />
        </mxCell>
        <mxCell id="vPbFiJ_FMfd-app0Vi9e-140" value="" style="shape=partialRectangle;overflow=hidden;connectable=0;fillColor=none;top=0;left=0;bottom=0;right=0;" parent="vPbFiJ_FMfd-app0Vi9e-139" vertex="1">
          <mxGeometry width="30" height="30" as="geometry">
            <mxRectangle width="30" height="30" as="alternateBounds" />
          </mxGeometry>
        </mxCell>
        <mxCell id="vPbFiJ_FMfd-app0Vi9e-141" value="price decimal(10,1) NOT NULL" style="shape=partialRectangle;overflow=hidden;connectable=0;fillColor=none;top=0;left=0;bottom=0;right=0;align=left;spacingLeft=6;" parent="vPbFiJ_FMfd-app0Vi9e-139" vertex="1">
          <mxGeometry x="30" width="222" height="30" as="geometry">
            <mxRectangle width="222" height="30" as="alternateBounds" />
          </mxGeometry>
        </mxCell>
        <mxCell id="vPbFiJ_FMfd-app0Vi9e-156" value="" style="shape=partialRectangle;collapsible=0;dropTarget=0;pointerEvents=0;fillColor=none;points=[[0,0.5],[1,0.5]];portConstraint=eastwest;top=0;left=0;right=0;bottom=0;" parent="vPbFiJ_FMfd-app0Vi9e-129" vertex="1">
          <mxGeometry y="180" width="252" height="30" as="geometry" />
        </mxCell>
        <mxCell id="vPbFiJ_FMfd-app0Vi9e-157" value="" style="shape=partialRectangle;overflow=hidden;connectable=0;fillColor=none;top=0;left=0;bottom=0;right=0;" parent="vPbFiJ_FMfd-app0Vi9e-156" vertex="1">
          <mxGeometry width="30" height="30" as="geometry">
            <mxRectangle width="30" height="30" as="alternateBounds" />
          </mxGeometry>
        </mxCell>
        <mxCell id="vPbFiJ_FMfd-app0Vi9e-158" value="turnover decimal(10,1) NOT NULL" style="shape=partialRectangle;overflow=hidden;connectable=0;fillColor=none;top=0;left=0;bottom=0;right=0;align=left;spacingLeft=6;" parent="vPbFiJ_FMfd-app0Vi9e-156" vertex="1">
          <mxGeometry x="30" width="222" height="30" as="geometry">
            <mxRectangle width="222" height="30" as="alternateBounds" />
          </mxGeometry>
        </mxCell>
        <mxCell id="vPbFiJ_FMfd-app0Vi9e-142" value="" style="shape=partialRectangle;collapsible=0;dropTarget=0;pointerEvents=0;fillColor=none;points=[[0,0.5],[1,0.5]];portConstraint=eastwest;top=0;left=0;right=0;bottom=0;" parent="vPbFiJ_FMfd-app0Vi9e-129" vertex="1">
          <mxGeometry y="210" width="252" height="30" as="geometry" />
        </mxCell>
        <mxCell id="vPbFiJ_FMfd-app0Vi9e-143" value="" style="shape=partialRectangle;overflow=hidden;connectable=0;fillColor=none;top=0;left=0;bottom=0;right=0;" parent="vPbFiJ_FMfd-app0Vi9e-142" vertex="1">
          <mxGeometry width="30" height="30" as="geometry">
            <mxRectangle width="30" height="30" as="alternateBounds" />
          </mxGeometry>
        </mxCell>
        <mxCell id="vPbFiJ_FMfd-app0Vi9e-144" value="volume int(11) NOT NULL" style="shape=partialRectangle;overflow=hidden;connectable=0;fillColor=none;top=0;left=0;bottom=0;right=0;align=left;spacingLeft=6;" parent="vPbFiJ_FMfd-app0Vi9e-142" vertex="1">
          <mxGeometry x="30" width="222" height="30" as="geometry">
            <mxRectangle width="222" height="30" as="alternateBounds" />
          </mxGeometry>
        </mxCell>
        <mxCell id="vPbFiJ_FMfd-app0Vi9e-159" value="" style="shape=partialRectangle;collapsible=0;dropTarget=0;pointerEvents=0;fillColor=none;points=[[0,0.5],[1,0.5]];portConstraint=eastwest;top=0;left=0;right=0;bottom=0;" parent="vPbFiJ_FMfd-app0Vi9e-129" vertex="1">
          <mxGeometry y="240" width="252" height="30" as="geometry" />
        </mxCell>
        <mxCell id="vPbFiJ_FMfd-app0Vi9e-160" value="" style="shape=partialRectangle;overflow=hidden;connectable=0;fillColor=none;top=0;left=0;bottom=0;right=0;" parent="vPbFiJ_FMfd-app0Vi9e-159" vertex="1">
          <mxGeometry width="30" height="30" as="geometry">
            <mxRectangle width="30" height="30" as="alternateBounds" />
          </mxGeometry>
        </mxCell>
        <mxCell id="vPbFiJ_FMfd-app0Vi9e-161" value="ticker_direction varchar(20) NOT NULL" style="shape=partialRectangle;overflow=hidden;connectable=0;fillColor=none;top=0;left=0;bottom=0;right=0;align=left;spacingLeft=6;" parent="vPbFiJ_FMfd-app0Vi9e-159" vertex="1">
          <mxGeometry x="30" width="222" height="30" as="geometry">
            <mxRectangle width="222" height="30" as="alternateBounds" />
          </mxGeometry>
        </mxCell>
        <mxCell id="vPbFiJ_FMfd-app0Vi9e-162" value="" style="shape=partialRectangle;collapsible=0;dropTarget=0;pointerEvents=0;fillColor=none;points=[[0,0.5],[1,0.5]];portConstraint=eastwest;top=0;left=0;right=0;bottom=0;" parent="vPbFiJ_FMfd-app0Vi9e-129" vertex="1">
          <mxGeometry y="270" width="252" height="30" as="geometry" />
        </mxCell>
        <mxCell id="vPbFiJ_FMfd-app0Vi9e-163" value="" style="shape=partialRectangle;overflow=hidden;connectable=0;fillColor=none;top=0;left=0;bottom=0;right=0;" parent="vPbFiJ_FMfd-app0Vi9e-162" vertex="1">
          <mxGeometry width="30" height="30" as="geometry">
            <mxRectangle width="30" height="30" as="alternateBounds" />
          </mxGeometry>
        </mxCell>
        <mxCell id="vPbFiJ_FMfd-app0Vi9e-164" value="type varchar(20) NOT NULL" style="shape=partialRectangle;overflow=hidden;connectable=0;fillColor=none;top=0;left=0;bottom=0;right=0;align=left;spacingLeft=6;" parent="vPbFiJ_FMfd-app0Vi9e-162" vertex="1">
          <mxGeometry x="30" width="222" height="30" as="geometry">
            <mxRectangle width="222" height="30" as="alternateBounds" />
          </mxGeometry>
        </mxCell>
        <mxCell id="vPbFiJ_FMfd-app0Vi9e-165" value="" style="shape=partialRectangle;collapsible=0;dropTarget=0;pointerEvents=0;fillColor=none;points=[[0,0.5],[1,0.5]];portConstraint=eastwest;top=0;left=0;right=0;bottom=0;" parent="vPbFiJ_FMfd-app0Vi9e-129" vertex="1">
          <mxGeometry y="300" width="252" height="30" as="geometry" />
        </mxCell>
        <mxCell id="vPbFiJ_FMfd-app0Vi9e-166" value="" style="shape=partialRectangle;overflow=hidden;connectable=0;fillColor=none;top=0;left=0;bottom=0;right=0;" parent="vPbFiJ_FMfd-app0Vi9e-165" vertex="1">
          <mxGeometry width="30" height="30" as="geometry">
            <mxRectangle width="30" height="30" as="alternateBounds" />
          </mxGeometry>
        </mxCell>
        <mxCell id="vPbFiJ_FMfd-app0Vi9e-167" value="Â push_data_type varchar(20) NOT NULL" style="shape=partialRectangle;overflow=hidden;connectable=0;fillColor=none;top=0;left=0;bottom=0;right=0;align=left;spacingLeft=6;" parent="vPbFiJ_FMfd-app0Vi9e-165" vertex="1">
          <mxGeometry x="30" width="222" height="30" as="geometry">
            <mxRectangle width="222" height="30" as="alternateBounds" />
          </mxGeometry>
        </mxCell>
        <mxCell id="vPbFiJ_FMfd-app0Vi9e-145" value="" style="shape=partialRectangle;collapsible=0;dropTarget=0;pointerEvents=0;fillColor=none;points=[[0,0.5],[1,0.5]];portConstraint=eastwest;top=0;left=0;right=0;bottom=0;" parent="vPbFiJ_FMfd-app0Vi9e-129" vertex="1">
          <mxGeometry y="330" width="252" height="30" as="geometry" />
        </mxCell>
        <mxCell id="vPbFiJ_FMfd-app0Vi9e-146" value="" style="shape=partialRectangle;overflow=hidden;connectable=0;fillColor=none;top=0;left=0;bottom=0;right=0;" parent="vPbFiJ_FMfd-app0Vi9e-145" vertex="1">
          <mxGeometry width="30" height="30" as="geometry">
            <mxRectangle width="30" height="30" as="alternateBounds" />
          </mxGeometry>
        </mxCell>
        <mxCell id="vPbFiJ_FMfd-app0Vi9e-147" value="create_time datetime(3) NOT NULLÂ " style="shape=partialRectangle;overflow=hidden;connectable=0;fillColor=none;top=0;left=0;bottom=0;right=0;align=left;spacingLeft=6;" parent="vPbFiJ_FMfd-app0Vi9e-145" vertex="1">
          <mxGeometry x="30" width="222" height="30" as="geometry">
            <mxRectangle width="222" height="30" as="alternateBounds" />
          </mxGeometry>
        </mxCell>
        <mxCell id="vPbFiJ_FMfd-app0Vi9e-168" value="broker" style="shape=table;startSize=30;container=1;collapsible=1;childLayout=tableLayout;fixedRows=1;rowLines=0;fontStyle=1;align=center;resizeLast=1;" parent="1" vertex="1">
          <mxGeometry x="640" y="570" width="252" height="120" as="geometry" />
        </mxCell>
        <mxCell id="vPbFiJ_FMfd-app0Vi9e-169" value="" style="shape=partialRectangle;collapsible=0;dropTarget=0;pointerEvents=0;fillColor=none;points=[[0,0.5],[1,0.5]];portConstraint=eastwest;top=0;left=0;right=0;bottom=1;" parent="vPbFiJ_FMfd-app0Vi9e-168" vertex="1">
          <mxGeometry y="30" width="252" height="30" as="geometry" />
        </mxCell>
        <mxCell id="vPbFiJ_FMfd-app0Vi9e-170" value="PK" style="shape=partialRectangle;overflow=hidden;connectable=0;fillColor=none;top=0;left=0;bottom=0;right=0;fontStyle=1;" parent="vPbFiJ_FMfd-app0Vi9e-169" vertex="1">
          <mxGeometry width="30" height="30" as="geometry">
            <mxRectangle width="30" height="30" as="alternateBounds" />
          </mxGeometry>
        </mxCell>
        <mxCell id="vPbFiJ_FMfd-app0Vi9e-171" value="id int NOT NULL " style="shape=partialRectangle;overflow=hidden;connectable=0;fillColor=none;top=0;left=0;bottom=0;right=0;align=left;spacingLeft=6;fontStyle=5;" parent="vPbFiJ_FMfd-app0Vi9e-169" vertex="1">
          <mxGeometry x="30" width="222" height="30" as="geometry">
            <mxRectangle width="222" height="30" as="alternateBounds" />
          </mxGeometry>
        </mxCell>
        <mxCell id="vPbFiJ_FMfd-app0Vi9e-172" value="" style="shape=partialRectangle;collapsible=0;dropTarget=0;pointerEvents=0;fillColor=none;points=[[0,0.5],[1,0.5]];portConstraint=eastwest;top=0;left=0;right=0;bottom=0;" parent="vPbFiJ_FMfd-app0Vi9e-168" vertex="1">
          <mxGeometry y="60" width="252" height="30" as="geometry" />
        </mxCell>
        <mxCell id="vPbFiJ_FMfd-app0Vi9e-173" value="" style="shape=partialRectangle;overflow=hidden;connectable=0;fillColor=none;top=0;left=0;bottom=0;right=0;" parent="vPbFiJ_FMfd-app0Vi9e-172" vertex="1">
          <mxGeometry width="30" height="30" as="geometry">
            <mxRectangle width="30" height="30" as="alternateBounds" />
          </mxGeometry>
        </mxCell>
        <mxCell id="vPbFiJ_FMfd-app0Vi9e-174" value="name int NOT NULL" style="shape=partialRectangle;overflow=hidden;connectable=0;fillColor=none;top=0;left=0;bottom=0;right=0;align=left;spacingLeft=6;" parent="vPbFiJ_FMfd-app0Vi9e-172" vertex="1">
          <mxGeometry x="30" width="222" height="30" as="geometry">
            <mxRectangle width="222" height="30" as="alternateBounds" />
          </mxGeometry>
        </mxCell>
        <mxCell id="vPbFiJ_FMfd-app0Vi9e-184" value="" style="shape=partialRectangle;collapsible=0;dropTarget=0;pointerEvents=0;fillColor=none;points=[[0,0.5],[1,0.5]];portConstraint=eastwest;top=0;left=0;right=0;bottom=0;" parent="vPbFiJ_FMfd-app0Vi9e-168" vertex="1">
          <mxGeometry y="90" width="252" height="30" as="geometry" />
        </mxCell>
        <mxCell id="vPbFiJ_FMfd-app0Vi9e-185" value="" style="shape=partialRectangle;overflow=hidden;connectable=0;fillColor=none;top=0;left=0;bottom=0;right=0;" parent="vPbFiJ_FMfd-app0Vi9e-184" vertex="1">
          <mxGeometry width="30" height="30" as="geometry">
            <mxRectangle width="30" height="30" as="alternateBounds" />
          </mxGeometry>
        </mxCell>
        <mxCell id="vPbFiJ_FMfd-app0Vi9e-186" value="create_time datetime(3) NOT NULLÂ " style="shape=partialRectangle;overflow=hidden;connectable=0;fillColor=none;top=0;left=0;bottom=0;right=0;align=left;spacingLeft=6;" parent="vPbFiJ_FMfd-app0Vi9e-184" vertex="1">
          <mxGeometry x="30" width="222" height="30" as="geometry">
            <mxRectangle width="222" height="30" as="alternateBounds" />
          </mxGeometry>
        </mxCell>
        <mxCell id="vPbFiJ_FMfd-app0Vi9e-193" value="bid_queue" style="shape=table;startSize=30;container=1;collapsible=1;childLayout=tableLayout;fixedRows=1;rowLines=0;fontStyle=1;align=center;resizeLast=1;" parent="1" vertex="1">
          <mxGeometry x="148" y="773" width="252" height="240" as="geometry" />
        </mxCell>
        <mxCell id="vPbFiJ_FMfd-app0Vi9e-194" value="" style="shape=partialRectangle;collapsible=0;dropTarget=0;pointerEvents=0;fillColor=none;points=[[0,0.5],[1,0.5]];portConstraint=eastwest;top=0;left=0;right=0;bottom=1;" parent="vPbFiJ_FMfd-app0Vi9e-193" vertex="1">
          <mxGeometry y="30" width="252" height="30" as="geometry" />
        </mxCell>
        <mxCell id="vPbFiJ_FMfd-app0Vi9e-195" value="PK" style="shape=partialRectangle;overflow=hidden;connectable=0;fillColor=none;top=0;left=0;bottom=0;right=0;fontStyle=1;" parent="vPbFiJ_FMfd-app0Vi9e-194" vertex="1">
          <mxGeometry width="30" height="30" as="geometry">
            <mxRectangle width="30" height="30" as="alternateBounds" />
          </mxGeometry>
        </mxCell>
        <mxCell id="vPbFiJ_FMfd-app0Vi9e-196" value="id int NOT NULL " style="shape=partialRectangle;overflow=hidden;connectable=0;fillColor=none;top=0;left=0;bottom=0;right=0;align=left;spacingLeft=6;fontStyle=5;" parent="vPbFiJ_FMfd-app0Vi9e-194" vertex="1">
          <mxGeometry x="30" width="222" height="30" as="geometry">
            <mxRectangle width="222" height="30" as="alternateBounds" />
          </mxGeometry>
        </mxCell>
        <mxCell id="vPbFiJ_FMfd-app0Vi9e-197" value="" style="shape=partialRectangle;collapsible=0;dropTarget=0;pointerEvents=0;fillColor=none;points=[[0,0.5],[1,0.5]];portConstraint=eastwest;top=0;left=0;right=0;bottom=0;" parent="vPbFiJ_FMfd-app0Vi9e-193" vertex="1">
          <mxGeometry y="60" width="252" height="30" as="geometry" />
        </mxCell>
        <mxCell id="vPbFiJ_FMfd-app0Vi9e-198" value="" style="shape=partialRectangle;overflow=hidden;connectable=0;fillColor=none;top=0;left=0;bottom=0;right=0;" parent="vPbFiJ_FMfd-app0Vi9e-197" vertex="1">
          <mxGeometry width="30" height="30" as="geometry">
            <mxRectangle width="30" height="30" as="alternateBounds" />
          </mxGeometry>
        </mxCell>
        <mxCell id="vPbFiJ_FMfd-app0Vi9e-199" value="stock_id int NOT NULL" style="shape=partialRectangle;overflow=hidden;connectable=0;fillColor=none;top=0;left=0;bottom=0;right=0;align=left;spacingLeft=6;" parent="vPbFiJ_FMfd-app0Vi9e-197" vertex="1">
          <mxGeometry x="30" width="222" height="30" as="geometry">
            <mxRectangle width="222" height="30" as="alternateBounds" />
          </mxGeometry>
        </mxCell>
        <mxCell id="vPbFiJ_FMfd-app0Vi9e-200" value="" style="shape=partialRectangle;collapsible=0;dropTarget=0;pointerEvents=0;fillColor=none;points=[[0,0.5],[1,0.5]];portConstraint=eastwest;top=0;left=0;right=0;bottom=0;" parent="vPbFiJ_FMfd-app0Vi9e-193" vertex="1">
          <mxGeometry y="90" width="252" height="30" as="geometry" />
        </mxCell>
        <mxCell id="vPbFiJ_FMfd-app0Vi9e-201" value="" style="shape=partialRectangle;overflow=hidden;connectable=0;fillColor=none;top=0;left=0;bottom=0;right=0;" parent="vPbFiJ_FMfd-app0Vi9e-200" vertex="1">
          <mxGeometry width="30" height="30" as="geometry">
            <mxRectangle width="30" height="30" as="alternateBounds" />
          </mxGeometry>
        </mxCell>
        <mxCell id="vPbFiJ_FMfd-app0Vi9e-202" value="broker_id int NOT NULL" style="shape=partialRectangle;overflow=hidden;connectable=0;fillColor=none;top=0;left=0;bottom=0;right=0;align=left;spacingLeft=6;" parent="vPbFiJ_FMfd-app0Vi9e-200" vertex="1">
          <mxGeometry x="30" width="222" height="30" as="geometry">
            <mxRectangle width="222" height="30" as="alternateBounds" />
          </mxGeometry>
        </mxCell>
        <mxCell id="vPbFiJ_FMfd-app0Vi9e-246" value="" style="shape=partialRectangle;collapsible=0;dropTarget=0;pointerEvents=0;fillColor=none;points=[[0,0.5],[1,0.5]];portConstraint=eastwest;top=0;left=0;right=0;bottom=0;" parent="vPbFiJ_FMfd-app0Vi9e-193" vertex="1">
          <mxGeometry y="120" width="252" height="30" as="geometry" />
        </mxCell>
        <mxCell id="vPbFiJ_FMfd-app0Vi9e-247" value="" style="shape=partialRectangle;overflow=hidden;connectable=0;fillColor=none;top=0;left=0;bottom=0;right=0;" parent="vPbFiJ_FMfd-app0Vi9e-246" vertex="1">
          <mxGeometry width="30" height="30" as="geometry">
            <mxRectangle width="30" height="30" as="alternateBounds" />
          </mxGeometry>
        </mxCell>
        <mxCell id="vPbFiJ_FMfd-app0Vi9e-248" value="broker_pos int NOT NULL" style="shape=partialRectangle;overflow=hidden;connectable=0;fillColor=none;top=0;left=0;bottom=0;right=0;align=left;spacingLeft=6;" parent="vPbFiJ_FMfd-app0Vi9e-246" vertex="1">
          <mxGeometry x="30" width="222" height="30" as="geometry">
            <mxRectangle width="222" height="30" as="alternateBounds" />
          </mxGeometry>
        </mxCell>
        <mxCell id="vPbFiJ_FMfd-app0Vi9e-209" value="" style="shape=partialRectangle;collapsible=0;dropTarget=0;pointerEvents=0;fillColor=none;points=[[0,0.5],[1,0.5]];portConstraint=eastwest;top=0;left=0;right=0;bottom=0;" parent="vPbFiJ_FMfd-app0Vi9e-193" vertex="1">
          <mxGeometry y="150" width="252" height="30" as="geometry" />
        </mxCell>
        <mxCell id="vPbFiJ_FMfd-app0Vi9e-210" value="" style="shape=partialRectangle;overflow=hidden;connectable=0;fillColor=none;top=0;left=0;bottom=0;right=0;" parent="vPbFiJ_FMfd-app0Vi9e-209" vertex="1">
          <mxGeometry width="30" height="30" as="geometry">
            <mxRectangle width="30" height="30" as="alternateBounds" />
          </mxGeometry>
        </mxCell>
        <mxCell id="vPbFiJ_FMfd-app0Vi9e-211" value="order_id bigint(20) NOT NULL" style="shape=partialRectangle;overflow=hidden;connectable=0;fillColor=none;top=0;left=0;bottom=0;right=0;align=left;spacingLeft=6;" parent="vPbFiJ_FMfd-app0Vi9e-209" vertex="1">
          <mxGeometry x="30" width="222" height="30" as="geometry">
            <mxRectangle width="222" height="30" as="alternateBounds" />
          </mxGeometry>
        </mxCell>
        <mxCell id="vPbFiJ_FMfd-app0Vi9e-212" value="" style="shape=partialRectangle;collapsible=0;dropTarget=0;pointerEvents=0;fillColor=none;points=[[0,0.5],[1,0.5]];portConstraint=eastwest;top=0;left=0;right=0;bottom=0;" parent="vPbFiJ_FMfd-app0Vi9e-193" vertex="1">
          <mxGeometry y="180" width="252" height="30" as="geometry" />
        </mxCell>
        <mxCell id="vPbFiJ_FMfd-app0Vi9e-213" value="" style="shape=partialRectangle;overflow=hidden;connectable=0;fillColor=none;top=0;left=0;bottom=0;right=0;" parent="vPbFiJ_FMfd-app0Vi9e-212" vertex="1">
          <mxGeometry width="30" height="30" as="geometry">
            <mxRectangle width="30" height="30" as="alternateBounds" />
          </mxGeometry>
        </mxCell>
        <mxCell id="vPbFiJ_FMfd-app0Vi9e-214" value="order_volume int NOT NULL" style="shape=partialRectangle;overflow=hidden;connectable=0;fillColor=none;top=0;left=0;bottom=0;right=0;align=left;spacingLeft=6;" parent="vPbFiJ_FMfd-app0Vi9e-212" vertex="1">
          <mxGeometry x="30" width="222" height="30" as="geometry">
            <mxRectangle width="222" height="30" as="alternateBounds" />
          </mxGeometry>
        </mxCell>
        <mxCell id="vPbFiJ_FMfd-app0Vi9e-203" value="" style="shape=partialRectangle;collapsible=0;dropTarget=0;pointerEvents=0;fillColor=none;points=[[0,0.5],[1,0.5]];portConstraint=eastwest;top=0;left=0;right=0;bottom=0;" parent="vPbFiJ_FMfd-app0Vi9e-193" vertex="1">
          <mxGeometry y="210" width="252" height="30" as="geometry" />
        </mxCell>
        <mxCell id="vPbFiJ_FMfd-app0Vi9e-204" value="" style="shape=partialRectangle;overflow=hidden;connectable=0;fillColor=none;top=0;left=0;bottom=0;right=0;" parent="vPbFiJ_FMfd-app0Vi9e-203" vertex="1">
          <mxGeometry width="30" height="30" as="geometry">
            <mxRectangle width="30" height="30" as="alternateBounds" />
          </mxGeometry>
        </mxCell>
        <mxCell id="vPbFiJ_FMfd-app0Vi9e-205" value="create_time datetime(3) NOT NULLÂ " style="shape=partialRectangle;overflow=hidden;connectable=0;fillColor=none;top=0;left=0;bottom=0;right=0;align=left;spacingLeft=6;" parent="vPbFiJ_FMfd-app0Vi9e-203" vertex="1">
          <mxGeometry x="30" width="222" height="30" as="geometry">
            <mxRectangle width="222" height="30" as="alternateBounds" />
          </mxGeometry>
        </mxCell>
        <mxCell id="vPbFiJ_FMfd-app0Vi9e-215" value="ask_queue" style="shape=table;startSize=30;container=1;collapsible=1;childLayout=tableLayout;fixedRows=1;rowLines=0;fontStyle=1;align=center;resizeLast=1;" parent="1" vertex="1">
          <mxGeometry x="600" y="793" width="252" height="240" as="geometry" />
        </mxCell>
        <mxCell id="vPbFiJ_FMfd-app0Vi9e-216" value="" style="shape=partialRectangle;collapsible=0;dropTarget=0;pointerEvents=0;fillColor=none;points=[[0,0.5],[1,0.5]];portConstraint=eastwest;top=0;left=0;right=0;bottom=1;" parent="vPbFiJ_FMfd-app0Vi9e-215" vertex="1">
          <mxGeometry y="30" width="252" height="30" as="geometry" />
        </mxCell>
        <mxCell id="vPbFiJ_FMfd-app0Vi9e-217" value="PK" style="shape=partialRectangle;overflow=hidden;connectable=0;fillColor=none;top=0;left=0;bottom=0;right=0;fontStyle=1;" parent="vPbFiJ_FMfd-app0Vi9e-216" vertex="1">
          <mxGeometry width="30" height="30" as="geometry">
            <mxRectangle width="30" height="30" as="alternateBounds" />
          </mxGeometry>
        </mxCell>
        <mxCell id="vPbFiJ_FMfd-app0Vi9e-218" value="id int NOT NULL " style="shape=partialRectangle;overflow=hidden;connectable=0;fillColor=none;top=0;left=0;bottom=0;right=0;align=left;spacingLeft=6;fontStyle=5;" parent="vPbFiJ_FMfd-app0Vi9e-216" vertex="1">
          <mxGeometry x="30" width="222" height="30" as="geometry">
            <mxRectangle width="222" height="30" as="alternateBounds" />
          </mxGeometry>
        </mxCell>
        <mxCell id="vPbFiJ_FMfd-app0Vi9e-219" value="" style="shape=partialRectangle;collapsible=0;dropTarget=0;pointerEvents=0;fillColor=none;points=[[0,0.5],[1,0.5]];portConstraint=eastwest;top=0;left=0;right=0;bottom=0;" parent="vPbFiJ_FMfd-app0Vi9e-215" vertex="1">
          <mxGeometry y="60" width="252" height="30" as="geometry" />
        </mxCell>
        <mxCell id="vPbFiJ_FMfd-app0Vi9e-220" value="" style="shape=partialRectangle;overflow=hidden;connectable=0;fillColor=none;top=0;left=0;bottom=0;right=0;" parent="vPbFiJ_FMfd-app0Vi9e-219" vertex="1">
          <mxGeometry width="30" height="30" as="geometry">
            <mxRectangle width="30" height="30" as="alternateBounds" />
          </mxGeometry>
        </mxCell>
        <mxCell id="vPbFiJ_FMfd-app0Vi9e-221" value="stock_id int NOT NULL" style="shape=partialRectangle;overflow=hidden;connectable=0;fillColor=none;top=0;left=0;bottom=0;right=0;align=left;spacingLeft=6;" parent="vPbFiJ_FMfd-app0Vi9e-219" vertex="1">
          <mxGeometry x="30" width="222" height="30" as="geometry">
            <mxRectangle width="222" height="30" as="alternateBounds" />
          </mxGeometry>
        </mxCell>
        <mxCell id="vPbFiJ_FMfd-app0Vi9e-222" value="" style="shape=partialRectangle;collapsible=0;dropTarget=0;pointerEvents=0;fillColor=none;points=[[0,0.5],[1,0.5]];portConstraint=eastwest;top=0;left=0;right=0;bottom=0;" parent="vPbFiJ_FMfd-app0Vi9e-215" vertex="1">
          <mxGeometry y="90" width="252" height="30" as="geometry" />
        </mxCell>
        <mxCell id="vPbFiJ_FMfd-app0Vi9e-223" value="" style="shape=partialRectangle;overflow=hidden;connectable=0;fillColor=none;top=0;left=0;bottom=0;right=0;" parent="vPbFiJ_FMfd-app0Vi9e-222" vertex="1">
          <mxGeometry width="30" height="30" as="geometry">
            <mxRectangle width="30" height="30" as="alternateBounds" />
          </mxGeometry>
        </mxCell>
        <mxCell id="vPbFiJ_FMfd-app0Vi9e-224" value="broker_id int NOT NULL" style="shape=partialRectangle;overflow=hidden;connectable=0;fillColor=none;top=0;left=0;bottom=0;right=0;align=left;spacingLeft=6;" parent="vPbFiJ_FMfd-app0Vi9e-222" vertex="1">
          <mxGeometry x="30" width="222" height="30" as="geometry">
            <mxRectangle width="222" height="30" as="alternateBounds" />
          </mxGeometry>
        </mxCell>
        <mxCell id="vPbFiJ_FMfd-app0Vi9e-277" value="" style="shape=partialRectangle;collapsible=0;dropTarget=0;pointerEvents=0;fillColor=none;points=[[0,0.5],[1,0.5]];portConstraint=eastwest;top=0;left=0;right=0;bottom=0;" parent="vPbFiJ_FMfd-app0Vi9e-215" vertex="1">
          <mxGeometry y="120" width="252" height="30" as="geometry" />
        </mxCell>
        <mxCell id="vPbFiJ_FMfd-app0Vi9e-278" value="" style="shape=partialRectangle;overflow=hidden;connectable=0;fillColor=none;top=0;left=0;bottom=0;right=0;" parent="vPbFiJ_FMfd-app0Vi9e-277" vertex="1">
          <mxGeometry width="30" height="30" as="geometry">
            <mxRectangle width="30" height="30" as="alternateBounds" />
          </mxGeometry>
        </mxCell>
        <mxCell id="vPbFiJ_FMfd-app0Vi9e-279" value="broker_pos int NOT NULL" style="shape=partialRectangle;overflow=hidden;connectable=0;fillColor=none;top=0;left=0;bottom=0;right=0;align=left;spacingLeft=6;" parent="vPbFiJ_FMfd-app0Vi9e-277" vertex="1">
          <mxGeometry x="30" width="222" height="30" as="geometry">
            <mxRectangle width="222" height="30" as="alternateBounds" />
          </mxGeometry>
        </mxCell>
        <mxCell id="vPbFiJ_FMfd-app0Vi9e-225" value="" style="shape=partialRectangle;collapsible=0;dropTarget=0;pointerEvents=0;fillColor=none;points=[[0,0.5],[1,0.5]];portConstraint=eastwest;top=0;left=0;right=0;bottom=0;" parent="vPbFiJ_FMfd-app0Vi9e-215" vertex="1">
          <mxGeometry y="150" width="252" height="30" as="geometry" />
        </mxCell>
        <mxCell id="vPbFiJ_FMfd-app0Vi9e-226" value="" style="shape=partialRectangle;overflow=hidden;connectable=0;fillColor=none;top=0;left=0;bottom=0;right=0;" parent="vPbFiJ_FMfd-app0Vi9e-225" vertex="1">
          <mxGeometry width="30" height="30" as="geometry">
            <mxRectangle width="30" height="30" as="alternateBounds" />
          </mxGeometry>
        </mxCell>
        <mxCell id="vPbFiJ_FMfd-app0Vi9e-227" value="order_id bigint(20) NOT NULL" style="shape=partialRectangle;overflow=hidden;connectable=0;fillColor=none;top=0;left=0;bottom=0;right=0;align=left;spacingLeft=6;" parent="vPbFiJ_FMfd-app0Vi9e-225" vertex="1">
          <mxGeometry x="30" width="222" height="30" as="geometry">
            <mxRectangle width="222" height="30" as="alternateBounds" />
          </mxGeometry>
        </mxCell>
        <mxCell id="vPbFiJ_FMfd-app0Vi9e-228" value="" style="shape=partialRectangle;collapsible=0;dropTarget=0;pointerEvents=0;fillColor=none;points=[[0,0.5],[1,0.5]];portConstraint=eastwest;top=0;left=0;right=0;bottom=0;" parent="vPbFiJ_FMfd-app0Vi9e-215" vertex="1">
          <mxGeometry y="180" width="252" height="30" as="geometry" />
        </mxCell>
        <mxCell id="vPbFiJ_FMfd-app0Vi9e-229" value="" style="shape=partialRectangle;overflow=hidden;connectable=0;fillColor=none;top=0;left=0;bottom=0;right=0;" parent="vPbFiJ_FMfd-app0Vi9e-228" vertex="1">
          <mxGeometry width="30" height="30" as="geometry">
            <mxRectangle width="30" height="30" as="alternateBounds" />
          </mxGeometry>
        </mxCell>
        <mxCell id="vPbFiJ_FMfd-app0Vi9e-230" value="order_volume int NOT NULL" style="shape=partialRectangle;overflow=hidden;connectable=0;fillColor=none;top=0;left=0;bottom=0;right=0;align=left;spacingLeft=6;" parent="vPbFiJ_FMfd-app0Vi9e-228" vertex="1">
          <mxGeometry x="30" width="222" height="30" as="geometry">
            <mxRectangle width="222" height="30" as="alternateBounds" />
          </mxGeometry>
        </mxCell>
        <mxCell id="vPbFiJ_FMfd-app0Vi9e-231" value="" style="shape=partialRectangle;collapsible=0;dropTarget=0;pointerEvents=0;fillColor=none;points=[[0,0.5],[1,0.5]];portConstraint=eastwest;top=0;left=0;right=0;bottom=0;" parent="vPbFiJ_FMfd-app0Vi9e-215" vertex="1">
          <mxGeometry y="210" width="252" height="30" as="geometry" />
        </mxCell>
        <mxCell id="vPbFiJ_FMfd-app0Vi9e-232" value="" style="shape=partialRectangle;overflow=hidden;connectable=0;fillColor=none;top=0;left=0;bottom=0;right=0;" parent="vPbFiJ_FMfd-app0Vi9e-231" vertex="1">
          <mxGeometry width="30" height="30" as="geometry">
            <mxRectangle width="30" height="30" as="alternateBounds" />
          </mxGeometry>
        </mxCell>
        <mxCell id="vPbFiJ_FMfd-app0Vi9e-233" value="create_time datetime(3) NOT NULLÂ " style="shape=partialRectangle;overflow=hidden;connectable=0;fillColor=none;top=0;left=0;bottom=0;right=0;align=left;spacingLeft=6;" parent="vPbFiJ_FMfd-app0Vi9e-231" vertex="1">
          <mxGeometry x="30" width="222" height="30" as="geometry">
            <mxRectangle width="222" height="30" as="alternateBounds" />
          </mxGeometry>
        </mxCell>
        <mxCell id="vPbFiJ_FMfd-app0Vi9e-237" style="edgeStyle=orthogonalEdgeStyle;rounded=0;orthogonalLoop=1;jettySize=auto;html=1;" parent="1" source="vPbFiJ_FMfd-app0Vi9e-169" target="vPbFiJ_FMfd-app0Vi9e-200" edge="1">
          <mxGeometry relative="1" as="geometry" />
        </mxCell>
        <mxCell id="vPbFiJ_FMfd-app0Vi9e-238" style="edgeStyle=orthogonalEdgeStyle;rounded=0;orthogonalLoop=1;jettySize=auto;html=1;exitX=1;exitY=0.5;exitDx=0;exitDy=0;" parent="1" source="vPbFiJ_FMfd-app0Vi9e-169" target="vPbFiJ_FMfd-app0Vi9e-222" edge="1">
          <mxGeometry relative="1" as="geometry" />
        </mxCell>
        <mxCell id="vPbFiJ_FMfd-app0Vi9e-240" style="edgeStyle=orthogonalEdgeStyle;rounded=0;orthogonalLoop=1;jettySize=auto;html=1;" parent="1" source="vPbFiJ_FMfd-app0Vi9e-33" target="vPbFiJ_FMfd-app0Vi9e-21" edge="1">
          <mxGeometry relative="1" as="geometry">
            <Array as="points">
              <mxPoint x="478" y="505" />
              <mxPoint x="478" y="105" />
            </Array>
          </mxGeometry>
        </mxCell>
        <mxCell id="vPbFiJ_FMfd-app0Vi9e-241" style="edgeStyle=orthogonalEdgeStyle;rounded=0;orthogonalLoop=1;jettySize=auto;html=1;" parent="1" source="vPbFiJ_FMfd-app0Vi9e-33" target="vPbFiJ_FMfd-app0Vi9e-95" edge="1">
          <mxGeometry relative="1" as="geometry">
            <Array as="points">
              <mxPoint x="780" y="510" />
              <mxPoint x="780" y="145" />
            </Array>
          </mxGeometry>
        </mxCell>
        <mxCell id="vPbFiJ_FMfd-app0Vi9e-243" style="edgeStyle=orthogonalEdgeStyle;rounded=0;orthogonalLoop=1;jettySize=auto;html=1;entryX=0;entryY=0.5;entryDx=0;entryDy=0;" parent="1" source="vPbFiJ_FMfd-app0Vi9e-33" target="vPbFiJ_FMfd-app0Vi9e-133" edge="1">
          <mxGeometry relative="1" as="geometry" />
        </mxCell>
        <mxCell id="vPbFiJ_FMfd-app0Vi9e-244" style="edgeStyle=orthogonalEdgeStyle;rounded=0;orthogonalLoop=1;jettySize=auto;html=1;entryX=0;entryY=0.5;entryDx=0;entryDy=0;" parent="1" source="vPbFiJ_FMfd-app0Vi9e-33" target="vPbFiJ_FMfd-app0Vi9e-197" edge="1">
          <mxGeometry relative="1" as="geometry" />
        </mxCell>
        <mxCell id="vPbFiJ_FMfd-app0Vi9e-245" style="edgeStyle=orthogonalEdgeStyle;rounded=0;orthogonalLoop=1;jettySize=auto;html=1;entryX=0;entryY=0.5;entryDx=0;entryDy=0;" parent="1" source="vPbFiJ_FMfd-app0Vi9e-33" target="vPbFiJ_FMfd-app0Vi9e-219" edge="1">
          <mxGeometry relative="1" as="geometry">
            <Array as="points">
              <mxPoint x="500" y="510" />
              <mxPoint x="500" y="868" />
            </Array>
          </mxGeometry>
        </mxCell>
        <mxCell id="vPbFiJ_FMfd-app0Vi9e-249" value="bid_order_detail" style="shape=table;startSize=30;container=1;collapsible=1;childLayout=tableLayout;fixedRows=1;rowLines=0;fontStyle=1;align=center;resizeLast=1;" parent="1" vertex="1">
          <mxGeometry x="940" y="340" width="252" height="270" as="geometry" />
        </mxCell>
        <mxCell id="vPbFiJ_FMfd-app0Vi9e-250" value="" style="shape=partialRectangle;collapsible=0;dropTarget=0;pointerEvents=0;fillColor=none;points=[[0,0.5],[1,0.5]];portConstraint=eastwest;top=0;left=0;right=0;bottom=1;" parent="vPbFiJ_FMfd-app0Vi9e-249" vertex="1">
          <mxGeometry y="30" width="252" height="30" as="geometry" />
        </mxCell>
        <mxCell id="vPbFiJ_FMfd-app0Vi9e-251" value="PK" style="shape=partialRectangle;overflow=hidden;connectable=0;fillColor=none;top=0;left=0;bottom=0;right=0;fontStyle=1;" parent="vPbFiJ_FMfd-app0Vi9e-250" vertex="1">
          <mxGeometry width="30" height="30" as="geometry">
            <mxRectangle width="30" height="30" as="alternateBounds" />
          </mxGeometry>
        </mxCell>
        <mxCell id="vPbFiJ_FMfd-app0Vi9e-252" value="id int NOT NULL " style="shape=partialRectangle;overflow=hidden;connectable=0;fillColor=none;top=0;left=0;bottom=0;right=0;align=left;spacingLeft=6;fontStyle=5;" parent="vPbFiJ_FMfd-app0Vi9e-250" vertex="1">
          <mxGeometry x="30" width="222" height="30" as="geometry">
            <mxRectangle width="222" height="30" as="alternateBounds" />
          </mxGeometry>
        </mxCell>
        <mxCell id="vPbFiJ_FMfd-app0Vi9e-280" value="" style="shape=partialRectangle;collapsible=0;dropTarget=0;pointerEvents=0;fillColor=none;points=[[0,0.5],[1,0.5]];portConstraint=eastwest;top=0;left=0;right=0;bottom=1;" parent="vPbFiJ_FMfd-app0Vi9e-249" vertex="1">
          <mxGeometry y="60" width="252" height="30" as="geometry" />
        </mxCell>
        <mxCell id="vPbFiJ_FMfd-app0Vi9e-281" value="UK" style="shape=partialRectangle;overflow=hidden;connectable=0;fillColor=none;top=0;left=0;bottom=0;right=0;fontStyle=1;" parent="vPbFiJ_FMfd-app0Vi9e-280" vertex="1">
          <mxGeometry width="30" height="30" as="geometry">
            <mxRectangle width="30" height="30" as="alternateBounds" />
          </mxGeometry>
        </mxCell>
        <mxCell id="vPbFiJ_FMfd-app0Vi9e-282" value="order_price_volume" style="shape=partialRectangle;overflow=hidden;connectable=0;fillColor=none;top=0;left=0;bottom=0;right=0;align=left;spacingLeft=6;fontStyle=5;" parent="vPbFiJ_FMfd-app0Vi9e-280" vertex="1">
          <mxGeometry x="30" width="222" height="30" as="geometry">
            <mxRectangle width="222" height="30" as="alternateBounds" />
          </mxGeometry>
        </mxCell>
        <mxCell id="vPbFiJ_FMfd-app0Vi9e-253" value="" style="shape=partialRectangle;collapsible=0;dropTarget=0;pointerEvents=0;fillColor=none;points=[[0,0.5],[1,0.5]];portConstraint=eastwest;top=0;left=0;right=0;bottom=0;" parent="vPbFiJ_FMfd-app0Vi9e-249" vertex="1">
          <mxGeometry y="90" width="252" height="30" as="geometry" />
        </mxCell>
        <mxCell id="vPbFiJ_FMfd-app0Vi9e-254" value="" style="shape=partialRectangle;overflow=hidden;connectable=0;fillColor=none;top=0;left=0;bottom=0;right=0;" parent="vPbFiJ_FMfd-app0Vi9e-253" vertex="1">
          <mxGeometry width="30" height="30" as="geometry">
            <mxRectangle width="30" height="30" as="alternateBounds" />
          </mxGeometry>
        </mxCell>
        <mxCell id="vPbFiJ_FMfd-app0Vi9e-255" value="order_id bigint(20) NOT NULL" style="shape=partialRectangle;overflow=hidden;connectable=0;fillColor=none;top=0;left=0;bottom=0;right=0;align=left;spacingLeft=6;" parent="vPbFiJ_FMfd-app0Vi9e-253" vertex="1">
          <mxGeometry x="30" width="222" height="30" as="geometry">
            <mxRectangle width="222" height="30" as="alternateBounds" />
          </mxGeometry>
        </mxCell>
        <mxCell id="vPbFiJ_FMfd-app0Vi9e-259" value="" style="shape=partialRectangle;collapsible=0;dropTarget=0;pointerEvents=0;fillColor=none;points=[[0,0.5],[1,0.5]];portConstraint=eastwest;top=0;left=0;right=0;bottom=0;" parent="vPbFiJ_FMfd-app0Vi9e-249" vertex="1">
          <mxGeometry y="120" width="252" height="30" as="geometry" />
        </mxCell>
        <mxCell id="vPbFiJ_FMfd-app0Vi9e-260" value="" style="shape=partialRectangle;overflow=hidden;connectable=0;fillColor=none;top=0;left=0;bottom=0;right=0;" parent="vPbFiJ_FMfd-app0Vi9e-259" vertex="1">
          <mxGeometry width="30" height="30" as="geometry">
            <mxRectangle width="30" height="30" as="alternateBounds" />
          </mxGeometry>
        </mxCell>
        <mxCell id="vPbFiJ_FMfd-app0Vi9e-261" value="price decimal(10,1) NOT NULL" style="shape=partialRectangle;overflow=hidden;connectable=0;fillColor=none;top=0;left=0;bottom=0;right=0;align=left;spacingLeft=6;" parent="vPbFiJ_FMfd-app0Vi9e-259" vertex="1">
          <mxGeometry x="30" width="222" height="30" as="geometry">
            <mxRectangle width="222" height="30" as="alternateBounds" />
          </mxGeometry>
        </mxCell>
        <mxCell id="vPbFiJ_FMfd-app0Vi9e-262" value="" style="shape=partialRectangle;collapsible=0;dropTarget=0;pointerEvents=0;fillColor=none;points=[[0,0.5],[1,0.5]];portConstraint=eastwest;top=0;left=0;right=0;bottom=0;" parent="vPbFiJ_FMfd-app0Vi9e-249" vertex="1">
          <mxGeometry y="150" width="252" height="30" as="geometry" />
        </mxCell>
        <mxCell id="vPbFiJ_FMfd-app0Vi9e-263" value="" style="shape=partialRectangle;overflow=hidden;connectable=0;fillColor=none;top=0;left=0;bottom=0;right=0;" parent="vPbFiJ_FMfd-app0Vi9e-262" vertex="1">
          <mxGeometry width="30" height="30" as="geometry">
            <mxRectangle width="30" height="30" as="alternateBounds" />
          </mxGeometry>
        </mxCell>
        <mxCell id="vPbFiJ_FMfd-app0Vi9e-264" value="volume int(11) NOT NULL" style="shape=partialRectangle;overflow=hidden;connectable=0;fillColor=none;top=0;left=0;bottom=0;right=0;align=left;spacingLeft=6;" parent="vPbFiJ_FMfd-app0Vi9e-262" vertex="1">
          <mxGeometry x="30" width="222" height="30" as="geometry">
            <mxRectangle width="222" height="30" as="alternateBounds" />
          </mxGeometry>
        </mxCell>
        <mxCell id="vPbFiJ_FMfd-app0Vi9e-274" value="" style="shape=partialRectangle;collapsible=0;dropTarget=0;pointerEvents=0;fillColor=none;points=[[0,0.5],[1,0.5]];portConstraint=eastwest;top=0;left=0;right=0;bottom=0;" parent="vPbFiJ_FMfd-app0Vi9e-249" vertex="1">
          <mxGeometry y="180" width="252" height="30" as="geometry" />
        </mxCell>
        <mxCell id="vPbFiJ_FMfd-app0Vi9e-275" value="" style="shape=partialRectangle;overflow=hidden;connectable=0;fillColor=none;top=0;left=0;bottom=0;right=0;" parent="vPbFiJ_FMfd-app0Vi9e-274" vertex="1">
          <mxGeometry width="30" height="30" as="geometry">
            <mxRectangle width="30" height="30" as="alternateBounds" />
          </mxGeometry>
        </mxCell>
        <mxCell id="vPbFiJ_FMfd-app0Vi9e-276" value="stock_id int NOT NULL" style="shape=partialRectangle;overflow=hidden;connectable=0;fillColor=none;top=0;left=0;bottom=0;right=0;align=left;spacingLeft=6;" parent="vPbFiJ_FMfd-app0Vi9e-274" vertex="1">
          <mxGeometry x="30" width="222" height="30" as="geometry">
            <mxRectangle width="222" height="30" as="alternateBounds" />
          </mxGeometry>
        </mxCell>
        <mxCell id="vPbFiJ_FMfd-app0Vi9e-271" value="" style="shape=partialRectangle;collapsible=0;dropTarget=0;pointerEvents=0;fillColor=none;points=[[0,0.5],[1,0.5]];portConstraint=eastwest;top=0;left=0;right=0;bottom=0;" parent="vPbFiJ_FMfd-app0Vi9e-249" vertex="1">
          <mxGeometry y="210" width="252" height="30" as="geometry" />
        </mxCell>
        <mxCell id="vPbFiJ_FMfd-app0Vi9e-272" value="" style="shape=partialRectangle;overflow=hidden;connectable=0;fillColor=none;top=0;left=0;bottom=0;right=0;" parent="vPbFiJ_FMfd-app0Vi9e-271" vertex="1">
          <mxGeometry width="30" height="30" as="geometry">
            <mxRectangle width="30" height="30" as="alternateBounds" />
          </mxGeometry>
        </mxCell>
        <mxCell id="vPbFiJ_FMfd-app0Vi9e-273" value="srv_time datetime(3) NOT NULL" style="shape=partialRectangle;overflow=hidden;connectable=0;fillColor=none;top=0;left=0;bottom=0;right=0;align=left;spacingLeft=6;" parent="vPbFiJ_FMfd-app0Vi9e-271" vertex="1">
          <mxGeometry x="30" width="222" height="30" as="geometry">
            <mxRectangle width="222" height="30" as="alternateBounds" />
          </mxGeometry>
        </mxCell>
        <mxCell id="vPbFiJ_FMfd-app0Vi9e-265" value="" style="shape=partialRectangle;collapsible=0;dropTarget=0;pointerEvents=0;fillColor=none;points=[[0,0.5],[1,0.5]];portConstraint=eastwest;top=0;left=0;right=0;bottom=0;" parent="vPbFiJ_FMfd-app0Vi9e-249" vertex="1">
          <mxGeometry y="240" width="252" height="30" as="geometry" />
        </mxCell>
        <mxCell id="vPbFiJ_FMfd-app0Vi9e-266" value="" style="shape=partialRectangle;overflow=hidden;connectable=0;fillColor=none;top=0;left=0;bottom=0;right=0;" parent="vPbFiJ_FMfd-app0Vi9e-265" vertex="1">
          <mxGeometry width="30" height="30" as="geometry">
            <mxRectangle width="30" height="30" as="alternateBounds" />
          </mxGeometry>
        </mxCell>
        <mxCell id="vPbFiJ_FMfd-app0Vi9e-267" value="create_time datetime(3) NOT NULLÂ " style="shape=partialRectangle;overflow=hidden;connectable=0;fillColor=none;top=0;left=0;bottom=0;right=0;align=left;spacingLeft=6;" parent="vPbFiJ_FMfd-app0Vi9e-265" vertex="1">
          <mxGeometry x="30" width="222" height="30" as="geometry">
            <mxRectangle width="222" height="30" as="alternateBounds" />
          </mxGeometry>
        </mxCell>
        <mxCell id="vPbFiJ_FMfd-app0Vi9e-286" value="UK" style="shape=partialRectangle;overflow=hidden;connectable=0;fillColor=none;top=0;left=0;bottom=0;right=0;fontStyle=1;" parent="1" vertex="1">
          <mxGeometry x="820" y="100" width="30" height="30" as="geometry">
            <mxRectangle width="30" height="30" as="alternateBounds" />
          </mxGeometry>
        </mxCell>
        <mxCell id="rp0l4pG9gxWRHkUcEiRz-1" value="user" style="shape=table;startSize=30;container=1;collapsible=1;childLayout=tableLayout;fixedRows=1;rowLines=0;fontStyle=1;align=center;resizeLast=1;" vertex="1" parent="1">
          <mxGeometry x="170" y="1100" width="252" height="270" as="geometry" />
        </mxCell>
        <mxCell id="rp0l4pG9gxWRHkUcEiRz-2" value="" style="shape=partialRectangle;collapsible=0;dropTarget=0;pointerEvents=0;fillColor=none;points=[[0,0.5],[1,0.5]];portConstraint=eastwest;top=0;left=0;right=0;bottom=1;" vertex="1" parent="rp0l4pG9gxWRHkUcEiRz-1">
          <mxGeometry y="30" width="252" height="30" as="geometry" />
        </mxCell>
        <mxCell id="rp0l4pG9gxWRHkUcEiRz-3" value="PK" style="shape=partialRectangle;overflow=hidden;connectable=0;fillColor=none;top=0;left=0;bottom=0;right=0;fontStyle=1;" vertex="1" parent="rp0l4pG9gxWRHkUcEiRz-2">
          <mxGeometry width="30" height="30" as="geometry">
            <mxRectangle width="30" height="30" as="alternateBounds" />
          </mxGeometry>
        </mxCell>
        <mxCell id="rp0l4pG9gxWRHkUcEiRz-4" value="id int NOT NULL " style="shape=partialRectangle;overflow=hidden;connectable=0;fillColor=none;top=0;left=0;bottom=0;right=0;align=left;spacingLeft=6;fontStyle=5;" vertex="1" parent="rp0l4pG9gxWRHkUcEiRz-2">
          <mxGeometry x="30" width="222" height="30" as="geometry">
            <mxRectangle width="222" height="30" as="alternateBounds" />
          </mxGeometry>
        </mxCell>
        <mxCell id="rp0l4pG9gxWRHkUcEiRz-46" value="" style="shape=partialRectangle;collapsible=0;dropTarget=0;pointerEvents=0;fillColor=none;points=[[0,0.5],[1,0.5]];portConstraint=eastwest;top=0;left=0;right=0;bottom=1;" vertex="1" parent="rp0l4pG9gxWRHkUcEiRz-1">
          <mxGeometry y="60" width="252" height="30" as="geometry" />
        </mxCell>
        <mxCell id="rp0l4pG9gxWRHkUcEiRz-47" value="UK" style="shape=partialRectangle;overflow=hidden;connectable=0;fillColor=none;top=0;left=0;bottom=0;right=0;fontStyle=1;" vertex="1" parent="rp0l4pG9gxWRHkUcEiRz-46">
          <mxGeometry width="30" height="30" as="geometry">
            <mxRectangle width="30" height="30" as="alternateBounds" />
          </mxGeometry>
        </mxCell>
        <mxCell id="rp0l4pG9gxWRHkUcEiRz-48" value="phone" style="shape=partialRectangle;overflow=hidden;connectable=0;fillColor=none;top=0;left=0;bottom=0;right=0;align=left;spacingLeft=6;fontStyle=5;" vertex="1" parent="rp0l4pG9gxWRHkUcEiRz-46">
          <mxGeometry x="30" width="222" height="30" as="geometry">
            <mxRectangle width="222" height="30" as="alternateBounds" />
          </mxGeometry>
        </mxCell>
        <mxCell id="rp0l4pG9gxWRHkUcEiRz-5" value="" style="shape=partialRectangle;collapsible=0;dropTarget=0;pointerEvents=0;fillColor=none;points=[[0,0.5],[1,0.5]];portConstraint=eastwest;top=0;left=0;right=0;bottom=0;" vertex="1" parent="rp0l4pG9gxWRHkUcEiRz-1">
          <mxGeometry y="90" width="252" height="30" as="geometry" />
        </mxCell>
        <mxCell id="rp0l4pG9gxWRHkUcEiRz-6" value="" style="shape=partialRectangle;overflow=hidden;connectable=0;fillColor=none;top=0;left=0;bottom=0;right=0;" vertex="1" parent="rp0l4pG9gxWRHkUcEiRz-5">
          <mxGeometry width="30" height="30" as="geometry">
            <mxRectangle width="30" height="30" as="alternateBounds" />
          </mxGeometry>
        </mxCell>
        <mxCell id="rp0l4pG9gxWRHkUcEiRz-7" value="phone varchar(11) NOT NULL" style="shape=partialRectangle;overflow=hidden;connectable=0;fillColor=none;top=0;left=0;bottom=0;right=0;align=left;spacingLeft=6;" vertex="1" parent="rp0l4pG9gxWRHkUcEiRz-5">
          <mxGeometry x="30" width="222" height="30" as="geometry">
            <mxRectangle width="222" height="30" as="alternateBounds" />
          </mxGeometry>
        </mxCell>
        <mxCell id="rp0l4pG9gxWRHkUcEiRz-8" value="" style="shape=partialRectangle;collapsible=0;dropTarget=0;pointerEvents=0;fillColor=none;points=[[0,0.5],[1,0.5]];portConstraint=eastwest;top=0;left=0;right=0;bottom=0;" vertex="1" parent="rp0l4pG9gxWRHkUcEiRz-1">
          <mxGeometry y="120" width="252" height="30" as="geometry" />
        </mxCell>
        <mxCell id="rp0l4pG9gxWRHkUcEiRz-9" value="" style="shape=partialRectangle;overflow=hidden;connectable=0;fillColor=none;top=0;left=0;bottom=0;right=0;" vertex="1" parent="rp0l4pG9gxWRHkUcEiRz-8">
          <mxGeometry width="30" height="30" as="geometry">
            <mxRectangle width="30" height="30" as="alternateBounds" />
          </mxGeometry>
        </mxCell>
        <mxCell id="rp0l4pG9gxWRHkUcEiRz-10" value="name varchar(30) DEFAULT &#39;&#39;" style="shape=partialRectangle;overflow=hidden;connectable=0;fillColor=none;top=0;left=0;bottom=0;right=0;align=left;spacingLeft=6;" vertex="1" parent="rp0l4pG9gxWRHkUcEiRz-8">
          <mxGeometry x="30" width="222" height="30" as="geometry">
            <mxRectangle width="222" height="30" as="alternateBounds" />
          </mxGeometry>
        </mxCell>
        <mxCell id="rp0l4pG9gxWRHkUcEiRz-11" value="" style="shape=partialRectangle;collapsible=0;dropTarget=0;pointerEvents=0;fillColor=none;points=[[0,0.5],[1,0.5]];portConstraint=eastwest;top=0;left=0;right=0;bottom=0;" vertex="1" parent="rp0l4pG9gxWRHkUcEiRz-1">
          <mxGeometry y="150" width="252" height="30" as="geometry" />
        </mxCell>
        <mxCell id="rp0l4pG9gxWRHkUcEiRz-12" value="" style="shape=partialRectangle;overflow=hidden;connectable=0;fillColor=none;top=0;left=0;bottom=0;right=0;" vertex="1" parent="rp0l4pG9gxWRHkUcEiRz-11">
          <mxGeometry width="30" height="30" as="geometry">
            <mxRectangle width="30" height="30" as="alternateBounds" />
          </mxGeometry>
        </mxCell>
        <mxCell id="rp0l4pG9gxWRHkUcEiRz-13" value="password varchar(32) NOT NULL" style="shape=partialRectangle;overflow=hidden;connectable=0;fillColor=none;top=0;left=0;bottom=0;right=0;align=left;spacingLeft=6;" vertex="1" parent="rp0l4pG9gxWRHkUcEiRz-11">
          <mxGeometry x="30" width="222" height="30" as="geometry">
            <mxRectangle width="222" height="30" as="alternateBounds" />
          </mxGeometry>
        </mxCell>
        <mxCell id="rp0l4pG9gxWRHkUcEiRz-14" value="" style="shape=partialRectangle;collapsible=0;dropTarget=0;pointerEvents=0;fillColor=none;points=[[0,0.5],[1,0.5]];portConstraint=eastwest;top=0;left=0;right=0;bottom=0;" vertex="1" parent="rp0l4pG9gxWRHkUcEiRz-1">
          <mxGeometry y="180" width="252" height="30" as="geometry" />
        </mxCell>
        <mxCell id="rp0l4pG9gxWRHkUcEiRz-15" value="" style="shape=partialRectangle;overflow=hidden;connectable=0;fillColor=none;top=0;left=0;bottom=0;right=0;" vertex="1" parent="rp0l4pG9gxWRHkUcEiRz-14">
          <mxGeometry width="30" height="30" as="geometry">
            <mxRectangle width="30" height="30" as="alternateBounds" />
          </mxGeometry>
        </mxCell>
        <mxCell id="rp0l4pG9gxWRHkUcEiRz-16" value="avatar varchar(255) DEFAULT &#39;&#39;" style="shape=partialRectangle;overflow=hidden;connectable=0;fillColor=none;top=0;left=0;bottom=0;right=0;align=left;spacingLeft=6;" vertex="1" parent="rp0l4pG9gxWRHkUcEiRz-14">
          <mxGeometry x="30" width="222" height="30" as="geometry">
            <mxRectangle width="222" height="30" as="alternateBounds" />
          </mxGeometry>
        </mxCell>
        <mxCell id="rp0l4pG9gxWRHkUcEiRz-17" value="" style="shape=partialRectangle;collapsible=0;dropTarget=0;pointerEvents=0;fillColor=none;points=[[0,0.5],[1,0.5]];portConstraint=eastwest;top=0;left=0;right=0;bottom=0;" vertex="1" parent="rp0l4pG9gxWRHkUcEiRz-1">
          <mxGeometry y="210" width="252" height="30" as="geometry" />
        </mxCell>
        <mxCell id="rp0l4pG9gxWRHkUcEiRz-18" value="" style="shape=partialRectangle;overflow=hidden;connectable=0;fillColor=none;top=0;left=0;bottom=0;right=0;" vertex="1" parent="rp0l4pG9gxWRHkUcEiRz-17">
          <mxGeometry width="30" height="30" as="geometry">
            <mxRectangle width="30" height="30" as="alternateBounds" />
          </mxGeometry>
        </mxCell>
        <mxCell id="rp0l4pG9gxWRHkUcEiRz-19" value="email varchar(40) DEFAULT &#39;&#39;" style="shape=partialRectangle;overflow=hidden;connectable=0;fillColor=none;top=0;left=0;bottom=0;right=0;align=left;spacingLeft=6;" vertex="1" parent="rp0l4pG9gxWRHkUcEiRz-17">
          <mxGeometry x="30" width="222" height="30" as="geometry">
            <mxRectangle width="222" height="30" as="alternateBounds" />
          </mxGeometry>
        </mxCell>
        <mxCell id="rp0l4pG9gxWRHkUcEiRz-20" value="" style="shape=partialRectangle;collapsible=0;dropTarget=0;pointerEvents=0;fillColor=none;points=[[0,0.5],[1,0.5]];portConstraint=eastwest;top=0;left=0;right=0;bottom=0;" vertex="1" parent="rp0l4pG9gxWRHkUcEiRz-1">
          <mxGeometry y="240" width="252" height="30" as="geometry" />
        </mxCell>
        <mxCell id="rp0l4pG9gxWRHkUcEiRz-21" value="" style="shape=partialRectangle;overflow=hidden;connectable=0;fillColor=none;top=0;left=0;bottom=0;right=0;" vertex="1" parent="rp0l4pG9gxWRHkUcEiRz-20">
          <mxGeometry width="30" height="30" as="geometry">
            <mxRectangle width="30" height="30" as="alternateBounds" />
          </mxGeometry>
        </mxCell>
        <mxCell id="rp0l4pG9gxWRHkUcEiRz-22" value="create_time datetime(3) NOT NULLÂ " style="shape=partialRectangle;overflow=hidden;connectable=0;fillColor=none;top=0;left=0;bottom=0;right=0;align=left;spacingLeft=6;" vertex="1" parent="rp0l4pG9gxWRHkUcEiRz-20">
          <mxGeometry x="30" width="222" height="30" as="geometry">
            <mxRectangle width="222" height="30" as="alternateBounds" />
          </mxGeometry>
        </mxCell>
        <mxCell id="rp0l4pG9gxWRHkUcEiRz-49" value="user_stock" style="shape=table;startSize=30;container=1;collapsible=1;childLayout=tableLayout;fixedRows=1;rowLines=0;fontStyle=1;align=center;resizeLast=1;" vertex="1" parent="1">
          <mxGeometry x="540" y="1100" width="250" height="180" as="geometry" />
        </mxCell>
        <mxCell id="rp0l4pG9gxWRHkUcEiRz-50" value="" style="shape=partialRectangle;collapsible=0;dropTarget=0;pointerEvents=0;fillColor=none;points=[[0,0.5],[1,0.5]];portConstraint=eastwest;top=0;left=0;right=0;bottom=1;" vertex="1" parent="rp0l4pG9gxWRHkUcEiRz-49">
          <mxGeometry y="30" width="250" height="30" as="geometry" />
        </mxCell>
        <mxCell id="rp0l4pG9gxWRHkUcEiRz-51" value="PK" style="shape=partialRectangle;overflow=hidden;connectable=0;fillColor=none;top=0;left=0;bottom=0;right=0;fontStyle=1;" vertex="1" parent="rp0l4pG9gxWRHkUcEiRz-50">
          <mxGeometry width="30" height="30" as="geometry">
            <mxRectangle width="30" height="30" as="alternateBounds" />
          </mxGeometry>
        </mxCell>
        <mxCell id="rp0l4pG9gxWRHkUcEiRz-52" value="id int NOT NULL " style="shape=partialRectangle;overflow=hidden;connectable=0;fillColor=none;top=0;left=0;bottom=0;right=0;align=left;spacingLeft=6;fontStyle=5;" vertex="1" parent="rp0l4pG9gxWRHkUcEiRz-50">
          <mxGeometry x="30" width="220" height="30" as="geometry">
            <mxRectangle width="220" height="30" as="alternateBounds" />
          </mxGeometry>
        </mxCell>
        <mxCell id="rp0l4pG9gxWRHkUcEiRz-53" value="" style="shape=partialRectangle;collapsible=0;dropTarget=0;pointerEvents=0;fillColor=none;points=[[0,0.5],[1,0.5]];portConstraint=eastwest;top=0;left=0;right=0;bottom=1;" vertex="1" parent="rp0l4pG9gxWRHkUcEiRz-49">
          <mxGeometry y="60" width="250" height="30" as="geometry" />
        </mxCell>
        <mxCell id="rp0l4pG9gxWRHkUcEiRz-54" value="UK" style="shape=partialRectangle;overflow=hidden;connectable=0;fillColor=none;top=0;left=0;bottom=0;right=0;fontStyle=1;" vertex="1" parent="rp0l4pG9gxWRHkUcEiRz-53">
          <mxGeometry width="30" height="30" as="geometry">
            <mxRectangle width="30" height="30" as="alternateBounds" />
          </mxGeometry>
        </mxCell>
        <mxCell id="rp0l4pG9gxWRHkUcEiRz-55" value="user_stock_id" style="shape=partialRectangle;overflow=hidden;connectable=0;fillColor=none;top=0;left=0;bottom=0;right=0;align=left;spacingLeft=6;fontStyle=5;" vertex="1" parent="rp0l4pG9gxWRHkUcEiRz-53">
          <mxGeometry x="30" width="220" height="30" as="geometry">
            <mxRectangle width="220" height="30" as="alternateBounds" />
          </mxGeometry>
        </mxCell>
        <mxCell id="rp0l4pG9gxWRHkUcEiRz-56" value="" style="shape=partialRectangle;collapsible=0;dropTarget=0;pointerEvents=0;fillColor=none;points=[[0,0.5],[1,0.5]];portConstraint=eastwest;top=0;left=0;right=0;bottom=0;" vertex="1" parent="rp0l4pG9gxWRHkUcEiRz-49">
          <mxGeometry y="90" width="250" height="30" as="geometry" />
        </mxCell>
        <mxCell id="rp0l4pG9gxWRHkUcEiRz-57" value="" style="shape=partialRectangle;overflow=hidden;connectable=0;fillColor=none;top=0;left=0;bottom=0;right=0;" vertex="1" parent="rp0l4pG9gxWRHkUcEiRz-56">
          <mxGeometry width="30" height="30" as="geometry">
            <mxRectangle width="30" height="30" as="alternateBounds" />
          </mxGeometry>
        </mxCell>
        <mxCell id="rp0l4pG9gxWRHkUcEiRz-58" value="user_id int(11) NOT NULL" style="shape=partialRectangle;overflow=hidden;connectable=0;fillColor=none;top=0;left=0;bottom=0;right=0;align=left;spacingLeft=6;" vertex="1" parent="rp0l4pG9gxWRHkUcEiRz-56">
          <mxGeometry x="30" width="220" height="30" as="geometry">
            <mxRectangle width="220" height="30" as="alternateBounds" />
          </mxGeometry>
        </mxCell>
        <mxCell id="rp0l4pG9gxWRHkUcEiRz-59" value="" style="shape=partialRectangle;collapsible=0;dropTarget=0;pointerEvents=0;fillColor=none;points=[[0,0.5],[1,0.5]];portConstraint=eastwest;top=0;left=0;right=0;bottom=0;" vertex="1" parent="rp0l4pG9gxWRHkUcEiRz-49">
          <mxGeometry y="120" width="250" height="30" as="geometry" />
        </mxCell>
        <mxCell id="rp0l4pG9gxWRHkUcEiRz-60" value="" style="shape=partialRectangle;overflow=hidden;connectable=0;fillColor=none;top=0;left=0;bottom=0;right=0;" vertex="1" parent="rp0l4pG9gxWRHkUcEiRz-59">
          <mxGeometry width="30" height="30" as="geometry">
            <mxRectangle width="30" height="30" as="alternateBounds" />
          </mxGeometry>
        </mxCell>
        <mxCell id="rp0l4pG9gxWRHkUcEiRz-61" value="stock_id int(11) NOT NULL" style="shape=partialRectangle;overflow=hidden;connectable=0;fillColor=none;top=0;left=0;bottom=0;right=0;align=left;spacingLeft=6;" vertex="1" parent="rp0l4pG9gxWRHkUcEiRz-59">
          <mxGeometry x="30" width="220" height="30" as="geometry">
            <mxRectangle width="220" height="30" as="alternateBounds" />
          </mxGeometry>
        </mxCell>
        <mxCell id="rp0l4pG9gxWRHkUcEiRz-71" value="" style="shape=partialRectangle;collapsible=0;dropTarget=0;pointerEvents=0;fillColor=none;points=[[0,0.5],[1,0.5]];portConstraint=eastwest;top=0;left=0;right=0;bottom=0;" vertex="1" parent="rp0l4pG9gxWRHkUcEiRz-49">
          <mxGeometry y="150" width="250" height="30" as="geometry" />
        </mxCell>
        <mxCell id="rp0l4pG9gxWRHkUcEiRz-72" value="" style="shape=partialRectangle;overflow=hidden;connectable=0;fillColor=none;top=0;left=0;bottom=0;right=0;" vertex="1" parent="rp0l4pG9gxWRHkUcEiRz-71">
          <mxGeometry width="30" height="30" as="geometry">
            <mxRectangle width="30" height="30" as="alternateBounds" />
          </mxGeometry>
        </mxCell>
        <mxCell id="rp0l4pG9gxWRHkUcEiRz-73" value="create_time datetime(3) NOT NULLÂ " style="shape=partialRectangle;overflow=hidden;connectable=0;fillColor=none;top=0;left=0;bottom=0;right=0;align=left;spacingLeft=6;" vertex="1" parent="rp0l4pG9gxWRHkUcEiRz-71">
          <mxGeometry x="30" width="220" height="30" as="geometry">
            <mxRectangle width="220" height="30" as="alternateBounds" />
          </mxGeometry>
        </mxCell>
        <mxCell id="rp0l4pG9gxWRHkUcEiRz-74" style="edgeStyle=orthogonalEdgeStyle;rounded=0;orthogonalLoop=1;jettySize=auto;html=1;exitX=1;exitY=0.5;exitDx=0;exitDy=0;entryX=0;entryY=0.5;entryDx=0;entryDy=0;" edge="1" parent="1" source="rp0l4pG9gxWRHkUcEiRz-2" target="rp0l4pG9gxWRHkUcEiRz-56">
          <mxGeometry relative="1" as="geometry" />
        </mxCell>
        <mxCell id="rp0l4pG9gxWRHkUcEiRz-75" style="edgeStyle=orthogonalEdgeStyle;rounded=0;orthogonalLoop=1;jettySize=auto;html=1;exitX=1;exitY=0.5;exitDx=0;exitDy=0;entryX=0;entryY=0.5;entryDx=0;entryDy=0;" edge="1" parent="1" source="vPbFiJ_FMfd-app0Vi9e-33" target="rp0l4pG9gxWRHkUcEiRz-59">
          <mxGeometry relative="1" as="geometry" />
        </mxCell>
        <mxCell id="rp0l4pG9gxWRHkUcEiRz-76" value="é»åå&lt;br&gt;ç¨æ·å é¤è®¢é&lt;br&gt;ç¨æ· socket éå&lt;br&gt;æå¤è®¢é futu100å¤æ¯&lt;br&gt;æ³¨åç¨ email&lt;br&gt;" style="rounded=0;whiteSpace=wrap;html=1;" vertex="1" parent="1">
          <mxGeometry x="900" y="1140" width="130" height="100" as="geometry" />
        </mxCell>
      </root>
    </mxGraphModel>
  </diagram>
</mxfile>
